<svg width="569" height="413" viewBox="0 0 569 413" fill="none" xmlns="http://www.w3.org/2000/svg">
<path fill-rule="evenodd" clip-rule="evenodd" d="M463.528 54.1113C477.925 57.7747 492.54 58.0011 506.994 60.5918C510.612 61.2402 520.925 61.2527 522.554 64.8749C523.507 66.9928 522.238 70.8218 521.826 72.8001C521.12 76.1891 520.539 79.5508 520.048 83.0143C517.803 98.8726 516.079 114.623 512.876 130.195C512.392 132.538 512.386 142.63 509.168 139.151C507.709 137.574 507.19 135.268 504.867 134.256C503.671 133.735 500.455 134.665 500.414 132.344C501.138 132.373 501.863 132.403 502.588 132.431C501.41 131.122 500.647 129.437 499.285 128.317C498.438 127.622 497.417 127.589 496.652 126.716C495.595 125.511 495.488 123.576 494.692 122.194C493.899 120.815 492.619 119.764 491.597 118.593C485.533 111.657 480.877 103.972 475.787 96.2602C470.75 88.6297 465.202 81.5567 460.563 73.625C455.663 65.2475 450.606 56.9664 445.273 48.8806C447.583 48.2126 450.531 50.1535 452.781 50.9727C456.318 52.2598 459.939 53.198 463.528 54.1113ZM495.781 142.448C495.074 142.23 494.424 141.858 493.832 141.332C497.485 135.997 496.823 142.446 495.781 142.448ZM489.727 137.663C487.865 139.422 486.352 140.319 484.148 140.067C483.939 140.043 483.754 139.179 483.388 139.159C483.068 139.141 482.762 139.497 482.483 139.471C481.534 139.382 480.7 140.963 479.77 139.338C482.099 136.993 483.975 133.819 486.793 132.094C490.708 129.696 492.863 134.701 489.727 137.663ZM475.444 132.542C472.832 134.794 471.274 137.894 467.843 138.912C464.623 139.869 461.151 139.289 457.787 138.318C462.764 133.544 468.795 130.238 473.798 125.529C475.426 123.996 477.177 121.166 479.563 120.834C482.214 120.467 483.565 122.923 485.352 124.893C482.037 127.424 478.616 129.806 475.444 132.542ZM452 131.736C449.499 133.918 447.392 137.088 443.525 135.19C442.9 134.884 442.794 135.537 442.117 134.001C441.403 132.381 442.15 130.763 442.946 129.693C444.819 127.18 448.736 126.363 451.302 124.903C455.396 122.574 459.221 119.486 463.037 116.694C465.679 114.761 468.097 112.112 471.181 110.939C473.562 110.034 477.419 111.004 474.875 114.263C472.558 117.232 467.886 119.171 464.904 121.398C460.496 124.691 456.166 128.102 452 131.736ZM441.592 117.182C441.886 117.316 442.179 117.45 442.473 117.584C442.438 117.59 443.06 115.97 443.347 115.796C444.739 114.95 446.267 114.367 447.686 113.573C450.956 111.742 454.03 109.433 456.984 107.095C459.391 105.191 461.634 102.816 464.542 101.759C467.059 100.843 467.588 101.3 469.044 103.945C462.899 106.871 456.497 109.733 451.185 114.132C447.727 116.995 444.803 122.009 440.294 117.627C440.727 117.478 441.159 117.33 441.592 117.182ZM439.937 103.837C442.109 104.471 445.184 100.233 446.903 99.1382C448.769 97.9482 450.513 96.8047 452.159 95.3112C453.618 93.9863 458.031 88.7377 460.509 90.5675C464.307 93.3703 456.522 97.9233 455.324 98.7218C450.302 102.071 445.035 105.428 440.576 109.584C440.363 107.669 440.15 105.754 439.937 103.837ZM441.246 87.5528C442.469 89.1019 451.614 76.8932 454.056 81.4384C455.931 84.9254 444.538 92.5324 442.187 93.2672C441.918 91.3785 442.587 89.2541 441.246 87.5528ZM440.131 74.6866C438.719 71.0602 439.129 70.8894 441.371 69.4169C443.081 68.2939 444.997 65.8404 446.343 69.8855C447.496 73.3492 441.557 78.3457 440.131 74.6866ZM438.739 60.5579C438.418 58.4024 440.926 60.3151 441.41 61.2584C442.697 63.7686 440.786 64.0027 439.2 64.758C439.074 63.3591 438.92 61.9571 438.739 60.5579ZM452.08 36.8804C451.539 36.5782 449.639 37.2688 449.017 37.2935C447.485 37.3533 447.111 36.1049 446.031 38.0258C445.904 37.9686 445.647 37.0329 445.54 37.0355C445.486 37.0365 444.106 37.0757 443.603 36.9743C442.389 36.7297 441.271 36.4574 440.049 36.0074C438.749 35.5299 437.256 34.6498 435.919 34.4133C435.356 34.3139 434.809 34.0525 434.258 34.2021C432.83 34.5909 433.719 35.4839 432.671 36.2443C432.025 36.7129 431.047 35.9903 430.321 36.8488C429.692 37.5901 429.855 39.1254 429.872 40.0772C429.934 43.5407 430.396 47.0802 430.5 50.561C431.032 68.3601 430.411 86.0233 431.211 103.863C431.598 112.457 431.876 121.163 433.373 129.778C434.453 135.992 434.806 145.652 440.406 149.708C444.478 152.657 449.646 152.307 454.032 152.581C460.632 152.992 467.249 154.486 473.865 154.782C481.754 155.134 489.534 155.728 497.451 156.546C500.827 156.896 504.283 158.069 507.61 158.338C509.645 158.502 511.355 155.754 512.884 157.624C513.53 153.839 517.666 154.188 519.025 151.092C519.825 149.271 519.715 146.487 520.159 144.501C520.825 141.524 521.712 138.635 522.432 135.68C525.284 123.943 527.441 112.108 529.373 100.041C531.219 88.5172 534.302 76.9928 534.827 65.091C535.036 60.366 533.513 56.2404 530.2 52.7078C527.783 50.1314 523.262 46.6551 520.892 50.2517C520.983 47.1958 514.861 46.8935 513.155 47.1172C513.129 47.1211 513.738 49.1455 513.304 49.2945C513.458 49.2415 510.071 45.7061 509.206 45.4578C506.636 44.7176 503.547 43.8967 500.948 43.5177C498.563 43.1704 496.37 43.4801 493.974 42.9618C491.069 42.3343 488.193 41.3192 485.286 40.7064C482.479 40.1151 479.3 39.3498 476.511 39.3523C474.092 39.3541 472.234 40.0135 469.727 39.3227C466.626 38.4676 464.097 38.0901 460.941 37.9862C458.211 37.8965 454.705 38.3521 452.08 36.8804Z" fill="#C3E9C2"/>
<path fill-rule="evenodd" clip-rule="evenodd" d="M126.128 356.329C126.617 355.181 127.105 354.034 127.594 352.887C128.199 354.887 128.368 355.882 126.128 356.329ZM126.779 361.63C125.719 361.819 126.137 358.498 126.137 357.92C127.967 358.955 126.451 360.196 126.779 361.63ZM125.126 352.05C126.03 351.517 126.933 350.985 127.837 350.451C126.579 352.78 127.072 351.325 127.591 352.88C126.642 353.152 125.72 352.835 125.126 352.05ZM119.772 370.247C116.385 382.52 105.628 392.199 94.2662 397.212C87.7373 400.092 81.3185 400.813 74.268 400.492C71.5488 400.368 68.349 399.485 65.732 399.649C63.717 399.776 63.8079 399.863 62.139 401.567C61.4006 400.209 61.9354 399.256 60.4543 398.465C58.6063 397.479 57.8391 398.628 56.9225 399.993C55.7228 398.751 55.2317 398.103 53.6773 397.366C53.7262 397.389 52.1892 397.331 52.2521 397.35C51.9743 397.264 50.3027 396.191 49.7793 395.996C47.6316 395.191 45.1483 394.86 43.1666 393.706C41.433 392.698 40.0052 389.868 38.0217 392.042C38.02 388.409 33.1189 386.901 30.8218 384.998C27.2323 382.024 24.3785 377.62 22.589 373.361C20.6806 368.819 20.0436 364.464 19.1506 359.783C18.5268 356.512 14.441 351.784 16.8945 348.483C17.4791 349.868 17.2047 351.285 18.1755 352.54C19.0493 350.858 19.5299 348.977 19.9248 347.136C20.1188 346.235 21.2425 343.589 21.1149 342.803C20.8554 341.196 18.8632 341.108 19.9676 339.138C22.2587 341.628 24.1076 337.256 22.3766 335.513C21.5221 336.475 21.2084 337.569 20.8143 338.761C18.5617 334.22 24.7961 335.682 23.4322 331.582C25.7075 331.145 27.0156 330.573 27.8806 328.327C28.8426 325.829 28.1349 325.284 30.3193 323.633C31.0708 323.066 33.1958 322.25 33.5847 321.316C34.337 319.512 32.4225 318.977 34.0993 317.287C34.6655 318.279 36.8727 320.244 38.0811 318.374C38.3232 318.002 37.307 317.737 38.0462 316.879C39.141 315.608 40.3661 314.362 42.2176 314.629C40.7514 310.968 50.1201 310.678 52.5195 309.814C54.9242 308.949 56.9645 308.381 59.5142 308.181C62.0612 307.98 62.1879 307.235 64.3444 305.703C64.527 307.894 65.0548 307.413 66.6145 307.799C66.9894 307.157 67.3738 307.084 67.767 307.583C68.1585 307.955 68.6373 308.129 69.2018 308.108C70.0581 308.153 71.0297 308.041 71.9271 308.059C74.0338 308.1 76.2069 307.925 78.2734 307.969C78.8064 307.88 79.3045 307.695 79.771 307.413C79.9659 307.78 80.1616 308.147 80.3556 308.515C81.4505 308.652 81.5352 310.022 82.8817 308.524C83.2802 310.429 84.4248 309.437 85.6341 309.954C86.7369 310.426 86.9125 311.18 87.9304 311.706C88.5997 312.248 89.3171 312.32 90.0843 311.923C90.8139 312.463 91.5549 312.987 92.3063 313.496C93.6913 314.277 95.3235 314.755 96.7827 315.372C97.7535 315.772 98.7182 316.188 99.6749 316.619C99.7038 317.773 100.222 318.181 101.229 317.841C102.138 318.601 102.394 318.572 103.277 319.866C105.276 322.799 107.05 325.077 109.575 327.699C120.55 339.096 123.922 355.209 119.772 370.247ZM123.14 321.784C118.185 315.157 111.171 307.568 104.869 303.383C101.674 301.26 97.1899 297.451 93.2832 296.329C92.357 296.063 91.3985 296.045 90.488 295.766C89.7846 295.55 89.4019 294.829 88.5998 294.699C88.0388 294.609 87.9767 295.863 87.3808 295.748C86.1348 295.505 85.3449 294.27 84.465 293.498C82.575 296.75 81.5492 291.28 78.7741 294.958C75.4712 289.785 67.712 290.916 62.4378 291.177C60.8738 291.254 60.1389 291.81 58.7522 292.222C57.4616 292.605 57.3341 292.506 55.9247 292.496C52.4147 292.469 49.2988 292.91 46.0544 294.449C40.6037 297.035 35.6005 301.064 30.4233 304.18C24.6371 307.663 19.4215 312.096 14.9949 317.19C-1.00752 335.609 -5.28644 362.493 7.47341 383.846C27.7408 417.759 80.0201 421.384 109.644 398.373C132.531 380.594 141.241 345.987 123.14 321.784Z" fill="#C3E9C2"/>
<path fill-rule="evenodd" clip-rule="evenodd" d="M409.427 330.171C408.858 331.526 403.546 331.07 403.43 329.472C403.257 327.084 410.415 327.815 409.427 330.171ZM415.069 329.284C418.079 329.528 423.025 331.57 425.926 330.337C430.353 328.453 425.704 325.563 423.329 324.699C420.912 323.82 417.312 324.287 416.069 321.763C415.135 319.865 417.445 314.566 414.579 315.418C411.571 316.312 412.446 323.902 407.727 321.344C405.476 320.123 406.394 312.686 402.624 316.485C401.592 317.525 401.502 319.433 400.135 320.208C398.741 321 396.991 320.175 395.519 320.244C391.621 320.426 390.379 324.068 394.329 325.512C395.791 326.047 401.301 326.7 397.963 329.086C395.86 330.589 391.188 327.435 389.382 330.051C386.899 333.645 393.549 333.726 395.335 334.801C398.361 336.622 395.862 340.874 396.103 343.902C396.472 348.529 399.164 347.562 400.141 343.647C400.97 340.324 399.943 335.542 404.958 336.862C413.124 339.013 400.417 349.367 406.398 352.016C410.213 353.706 410.752 344.573 411.049 343.001C412.145 337.197 415.41 338.551 420.355 338.729C426.133 338.937 427.527 334.668 421.409 333.446C419.457 333.056 416.772 333.549 415.077 332.307C414.074 331.573 412.695 329.092 415.069 329.284Z" fill="#C3E9C2"/>
<path fill-rule="evenodd" clip-rule="evenodd" d="M132.793 133.122C130.414 132.253 127.47 130.555 124.825 131.134C122.014 131.748 120.882 134.56 118.839 136.251C113.282 140.847 110.046 133.996 106.993 130.242C104.109 126.697 100.591 125.837 96.523 128.015C94.9021 128.883 88.0735 132.862 89.2645 135.411C90.1208 137.245 93.4945 135.599 94.6453 135.198C97.1434 134.33 99.4633 133.57 102.018 134.836C106.811 137.21 108.054 143.719 113.853 144.734C119.849 145.784 120.045 140.085 124.324 137.94C127.193 136.503 129.191 139.047 131.958 138.54C134.595 138.058 135.815 134.225 132.793 133.122Z" fill="#C3E9C2"/>
<path fill-rule="evenodd" clip-rule="evenodd" d="M113.252 109.398C115.373 109.857 116.757 105.75 118.084 104.708C120.286 102.981 124.104 102.633 126.346 104.371C130.724 107.764 129.215 115.089 135.45 116.999C141.022 118.706 143.647 111.376 148.337 109.551C151.064 108.49 154.058 107.795 152.994 103.988C152.259 101.355 150.094 100.679 147.74 101.69C143.694 103.427 142.32 110.501 137.524 110.628C132.562 110.759 132.024 103.614 129.894 100.502C126.646 95.7593 119.969 94.6135 116.175 99.1488C115.03 100.517 109.214 108.524 113.252 109.398Z" fill="#C3E9C2"/>
</svg>
