<svg width="80" height="80" viewBox="0 0 80 80" fill="none" xmlns="http://www.w3.org/2000/svg">
<circle cx="40" cy="40" r="40" fill="#DBFDDA"/>
<path d="M51.25 38.5C51.25 47.25 40 54.75 40 54.75C40 54.75 28.75 47.25 28.75 38.5C28.75 35.5163 29.9353 32.6548 32.045 30.545C34.1548 28.4353 37.0163 27.25 40 27.25C42.9837 27.25 45.8452 28.4353 47.955 30.545C50.0647 32.6548 51.25 35.5163 51.25 38.5Z" stroke="#09A206" stroke-opacity="0.63" stroke-width="2" stroke-linecap="round" stroke-linejoin="round"/>
<path d="M40 42.25C42.0711 42.25 43.75 40.5711 43.75 38.5C43.75 36.4289 42.0711 34.75 40 34.75C37.9289 34.75 36.25 36.4289 36.25 38.5C36.25 40.5711 37.9289 42.25 40 42.25Z" stroke="#09A206" stroke-opacity="0.63" stroke-width="2" stroke-linecap="round" stroke-linejoin="round"/>
</svg>
