<svg width="512" height="474" viewBox="0 0 512 474" fill="none" xmlns="http://www.w3.org/2000/svg">
<ellipse cx="266" cy="237" rx="246" ry="237" fill="#DBFDDA"/>
<path fill-rule="evenodd" clip-rule="evenodd" d="M379.975 58.2132C377.252 57.2172 373.883 55.2722 370.856 55.9352C367.639 56.6392 366.344 59.8612 364.005 61.7982C357.646 67.0652 353.942 59.2152 350.448 54.9132C347.148 50.8512 343.122 49.8652 338.466 52.3612C336.611 53.3562 328.796 57.9152 330.159 60.8362C331.139 62.9382 335 61.0512 336.317 60.5922C339.176 59.5972 341.831 58.7262 344.755 60.1772C350.24 62.8972 351.663 70.3562 358.299 71.5192C365.161 72.7222 365.386 66.1922 370.283 63.7342C373.566 62.0872 375.853 65.0032 379.02 64.4222C382.038 63.8692 383.434 59.4772 379.975 58.2132Z" fill="#2D2A2A"/>
<path fill-rule="evenodd" clip-rule="evenodd" d="M224.498 230.173C219.947 233.48 220.672 239.988 222.041 244.716C224.058 251.677 228.076 258.121 232.659 263.676C240.79 273.531 254.592 284.596 267.315 275.945C278.645 268.24 285.792 252.693 288.259 239.597C289.021 235.55 290.037 229.52 286.454 226.478C281.158 221.98 271.816 222.798 265.423 223.378C261.212 223.758 257.15 225.053 252.989 224.445C243.321 223.033 232.561 224.312 224.498 230.173Z" fill="#09A206" fill-opacity="0.63"/>
<path fill-rule="evenodd" clip-rule="evenodd" d="M420.511 281.742C411.294 293.465 395.623 295.318 381.705 295.203C373.347 295.133 364.973 294.502 356.78 292.795C352.362 291.874 347.974 290.654 343.706 289.189C340.887 288.221 336.69 287.737 335.49 284.709C332.325 276.717 334.654 266.696 335.957 258.585C336.62 254.46 337.118 250.309 337.763 246.18C338.175 243.539 338.372 240.616 339.477 238.144C340.77 235.249 342.403 235.827 345.137 236.627C348.905 237.73 352.773 238.188 356.646 238.781C366.1 240.228 374.347 243.147 382.938 247.284C391.434 251.373 399.674 255.411 407.251 261.098C411.09 263.98 414.399 267.108 417.48 270.781C419.861 273.619 423.415 278.049 420.511 281.742ZM380.219 333.812C380.145 335.074 365.699 331.263 363.798 330.836C351.325 328.031 338.604 324.836 326.828 319.768C315.837 315.038 306.152 309.626 297.503 301.221C293.471 297.304 289.845 293.178 286.375 288.785C284.636 286.583 282.26 286.838 280.321 284.975C278.576 283.299 277.238 281.99 277.783 279.483C282.143 280.634 290.192 287.873 294.71 284.218C297.286 282.134 293.714 279.958 292.065 278.75C288.965 276.48 286.314 273.679 283.849 270.74C288.08 271.562 292.019 273.151 295.702 275.363C297.338 276.345 302.946 279.908 304.251 276.512C305.054 274.42 301.252 271.793 300.066 270.636C297.155 267.796 294.012 264.481 292.467 260.663C296.288 259.774 299.89 262.735 302.493 265.147C305.381 267.824 308.922 270.635 311.345 273.72C312.594 275.312 312.866 277.191 313.842 278.908C314.941 280.839 316.698 282.494 318.377 283.923C321.612 286.677 325.396 288.704 329.28 290.38C338.156 294.212 347.669 296.923 357.13 298.825C361.771 299.758 366.298 300.188 371.009 300.347C374.67 300.47 376.29 301.567 377.688 304.949C381.471 314.101 380.784 324.169 380.219 333.812ZM271.578 264.081C269.462 266.066 266.711 267.312 264.499 269.221C262.552 270.901 260.306 272.693 258.133 274.052C255.813 275.501 254.08 274.485 251.991 273.173C249.539 271.634 246.721 271.01 244.195 269.633C235.464 264.868 224.781 253.193 226.411 242.473C227.102 237.93 229.445 233.459 233.7 231.398C237.564 229.526 243.18 228.487 247.314 230.052C249.645 230.935 251.314 232.884 252.808 234.799C254.55 237.033 255.217 236.681 256.991 234.526C260.166 230.673 265.401 227.292 270.576 227.374C273.148 227.415 275.704 227.958 278.02 229.028C278.334 229.174 278.509 229.613 278.824 229.762C279.211 229.944 279.847 229.564 280.116 229.735C280.795 230.166 281.472 231.511 281.863 232.193C283.433 234.932 286.26 240.303 283.411 242.609C283.41 242.61 283.538 245.729 283.499 246.085C283.298 247.945 282.656 249.481 281.83 251.183C279.348 256.295 275.683 260.231 271.578 264.081ZM275.799 307.333C273.794 307.958 271.634 301.658 273.557 300.652C275.391 299.693 277.614 306.768 275.799 307.333ZM244.305 299.8C243.61 302.18 243.317 304.881 241.619 306.818C240.064 304.968 239.911 301.554 241.419 299.653C242.28 298.568 245.064 297.199 244.305 299.8ZM308.473 258.101C308.461 258.162 310.886 259.324 309.703 260.595C308.087 262.331 308.309 258.952 308.473 258.101ZM318.49 238.705C318.462 241.111 313.381 240.53 313.417 238.11C313.462 235.131 318.52 236.154 318.49 238.705ZM312.425 218.593C312.928 216.39 321.766 213.325 321.525 217.165C321.404 219.09 311.358 223.277 312.425 218.593ZM221.823 293.309C220.832 294.504 219.425 294.974 218.237 295.891C216.992 296.851 216.102 298.098 215.014 299.225C212.027 302.322 208.432 304.866 205.21 307.71C199.285 312.938 193.611 318.559 187.042 322.993C175.305 330.917 161.694 335.25 148.181 339.045C147.062 339.359 143.837 340.628 142.73 339.683C141.535 338.663 142.143 335.077 142.198 333.721C142.422 328.161 143.068 322.536 142.998 316.984C142.969 314.704 142.303 311.463 143.49 309.376C144.815 307.046 148.514 306.364 150.803 305.487C157.758 302.822 164.458 298.326 170.602 294.162C178.154 289.043 185.782 283.839 193.554 279.06C201.169 274.378 209.568 271.244 218.062 268.57C218.456 269.399 214.403 272.067 213.94 272.441C211.718 274.234 209.3 276.094 207.65 278.461C206.482 280.137 205.285 283.93 208.51 284.027C210.073 284.075 212.384 282.559 213.801 282.068C216.142 281.258 218.554 280.69 221.003 280.32C218.898 282.644 211.762 286.819 213.06 290.684C214.32 294.435 221.606 290.058 224.115 290.058C223.703 291.366 222.67 292.288 221.823 293.309ZM135.74 303.778C131.074 305.423 126.291 306.359 121.475 307.421C116.885 308.433 112.641 309.196 107.94 308.604C101.448 307.785 94.2638 305.089 93.4408 297.693C92.4649 288.931 98.6373 280.878 103.938 274.592C110.388 266.943 117.631 260.105 125.481 253.913C133.322 247.727 141.785 242.273 150.652 237.669C157.398 234.167 165.016 232.04 172.148 229.412C173.505 228.912 177.258 227.155 178.528 228.611C179.553 229.789 178.157 231.75 177.69 232.844C176.778 234.975 176.652 237.121 176.417 239.41C175.365 249.63 174.1 259.848 173.517 270.112C173.355 272.973 173.069 275.966 173.236 278.828C173.328 280.414 174.151 282.433 173.602 283.981C172.549 286.957 167.724 288.927 165.168 290.256C160.59 292.635 155.743 294.411 151.119 296.687C146.04 299.187 141.096 301.889 135.74 303.778ZM200.456 237.368C201.737 237.192 203.656 236.842 204.798 237.674C206.287 238.759 205.896 240.268 204.521 241.055C203.435 241.677 200.893 241.847 199.82 241.283C197.992 240.322 198.301 237.665 200.456 237.368ZM207.55 261.034C206.515 262.763 202.732 263.896 203.062 260.671C203.344 257.909 209.456 257.852 207.55 261.034ZM206.146 212.343C207.81 212.99 210.829 213.543 211.323 215.689C211.782 217.686 209.894 217.554 208.532 217.004C207.412 216.553 202.42 212.309 206.146 212.343ZM466.843 288.536C465.871 284.744 466.611 280.546 466.075 276.663C465.555 272.898 464.619 269.439 463.275 265.891C460.301 258.037 456.893 250.966 452.072 244.073C442.991 231.092 432.456 219.657 419.734 210.176C407.174 200.815 393.267 193.208 378.535 187.877C362.912 182.223 347.187 180.255 330.713 179.171C325.793 178.848 320.878 178.464 315.986 177.841C312.41 177.386 307.928 176.825 304.393 177.923C302.172 178.613 300.931 180.555 303.351 181.829C305.066 182.733 307.312 182.841 309.206 183.081C306.918 190.37 303.194 197.684 297.293 202.703C291.533 207.604 283.824 209.283 276.553 210.526C272.61 211.2 268.196 211.721 264.192 211.43C261.661 211.247 259.686 210.072 258.664 212.686C257.956 214.502 257.62 216.495 256.686 213.753C255.581 210.511 255.039 210.531 251.601 209.611C244.57 207.728 236.511 206.009 230.377 201.937C224.014 197.712 221.801 190.877 218.249 184.513C217.37 182.94 214.72 179.756 216.074 177.953C217.312 176.305 221.339 176.469 223.183 176.297C225.129 176.116 227.087 176.108 229.039 176.032C230.17 175.988 232.446 176.453 231.991 174.759C231.304 172.206 223.948 172.534 222.121 172.492C218.724 172.416 215.281 172.494 211.901 172.869C195.142 174.727 178.233 178.163 162.015 182.745C130.552 191.634 100.078 208.014 77.1163 231.611C55.075 254.262 48.0919 291.956 61.6421 320.877C68.6839 335.908 83.9661 342.083 98.7801 347.07C106.594 349.7 114.868 351.757 123.174 351.261C127.16 351.023 130.943 349.947 134.83 349.136C136.525 348.782 138.455 348.218 140.196 348.361C141.515 348.468 142.781 349.682 144.018 349.037C144.895 348.579 145.277 347.266 146.349 346.706C147.637 346.035 149.198 345.793 150.589 345.454C154.455 344.513 158.198 342.986 161.976 341.734C165.883 340.439 169.571 338.772 173.32 337.086C175.213 336.235 179.594 332.774 180.827 335.304C181.39 336.459 181.15 338.687 181.287 339.898C181.527 342.016 181.809 344.13 182.117 346.24C182.796 350.884 183.609 355.509 184.442 360.128C185.946 368.463 187.884 376.441 191.124 384.281C193.711 390.541 195.982 397.637 200.786 402.617C202.883 404.79 205.744 405.769 208.752 405.085C212.173 404.308 213.876 401.192 215.953 398.673C220.523 393.129 228.067 388.882 235.033 387.353C243.564 385.48 251.874 388.219 260.017 390.547C268.63 393.009 277.398 395.355 285.853 398.315C293.73 401.074 302.237 405.148 310.781 404.793C318.231 404.484 325.191 398.405 330.564 393.77C335.961 389.116 342.708 382.301 350.468 382.85C354.322 383.122 357.833 384.985 361.586 385.743C365.707 386.575 370.091 386.693 374.281 387.003C379.482 387.388 391.118 386.028 393.042 379.755C393.328 378.824 393.33 376.907 392.104 376.535C390.976 376.193 390.4 377.515 389.332 377.454C387.158 377.331 385.46 373.532 384.266 372.061C379.448 366.123 372.838 361.694 367.431 356.329C361.325 350.273 356.113 342.934 351.512 335.697C353.592 335.155 355.836 336.055 357.849 336.482C360.295 337.002 362.678 337.629 365.089 338.295C367.745 339.028 370.439 339.532 373.135 340.091C375.147 340.507 377.817 340.633 379.633 341.645C381.218 342.528 382.102 343.477 384.07 343.733C386.071 343.993 388.125 343.774 390.136 343.76C395.573 343.723 400.999 343.622 406.411 343.046C425.532 341.009 445.802 332.9 457.3 316.806C460.428 312.429 462.947 307.58 464.539 302.434C465.782 298.416 467.925 292.754 466.843 288.536Z" fill="#2D2A2A"/>
<path fill-rule="evenodd" clip-rule="evenodd" d="M287.494 103.111C292.52 103.182 297.23 104.676 301.912 106.375C306.03 107.868 310.42 109.25 313.749 112.231C319.738 117.593 321.298 126.471 322.278 134.067C323.5 143.546 319.432 151.498 316.009 160.074C312.806 168.094 306.929 174.591 299.943 179.542C296.283 182.136 292.238 183.701 288.006 185.074C283.706 186.468 279.543 188.335 274.944 188.328C267.959 188.318 259.016 184.992 256.041 178.092C254.687 174.951 256.006 174.387 258.716 176.094C262.649 178.571 266.44 181.244 271.035 182.343C279.947 184.475 290.621 181.172 298.436 176.815C306.247 172.459 311.491 165.916 314.996 157.767C318.533 149.547 319.907 141.448 318.543 132.586C317.387 125.076 315.088 118.216 308.338 114.139C293.767 105.34 274.135 106.049 261.176 117.485C259.399 119.052 257.642 120.578 255.811 122.075C254.647 123.026 253.276 124.168 253.445 125.813C253.59 127.222 256.587 132.655 252.978 130.986C250.053 129.633 248.463 126.988 244.92 126.661C241.149 126.312 236.65 129.217 235.522 132.873C234.446 136.361 236.364 141.134 239.37 143.135C241.231 144.374 243.279 144.182 245.393 144.132C246.442 144.107 249.362 143.766 250.056 144.878C251.285 146.844 246.951 148.911 245.553 149.346C242.15 150.404 238.128 149.159 236.172 146.113C234.183 143.017 232.822 139.434 232.548 135.745C232.286 132.211 233.086 128.633 235.166 125.731C237.378 122.645 241.886 119.185 245.929 120.257C247.683 120.722 249.092 122.539 250.814 122.885C251.901 123.102 251.443 123.258 252.344 122.45C252.915 121.938 253.455 120.993 253.983 120.385C257.016 116.893 260.016 113.167 263.729 110.372C270.386 105.36 279.235 102.993 287.494 103.111ZM269.084 172.343C269.872 170.492 271.318 173.793 271.746 174.345C272.592 175.437 274.583 176.287 274.497 177.897C274.356 180.556 270.741 180.063 269.536 178.676C268.164 177.097 268.307 174.17 269.084 172.343ZM294.765 159.754C296.715 162.801 294.339 166.09 292.797 168.786C291.323 171.365 289.953 174.279 288.237 176.703C285.388 180.728 279.19 176.374 279.006 172.238C278.866 169.071 281.103 170.45 282.538 171.632C284.016 172.85 284.717 173.154 286.266 171.823C289.383 169.146 290.783 164.669 292.938 161.279C293.365 160.607 294.139 160.203 294.765 159.754ZM300.324 160.734C300.827 162.207 299.772 166.111 302.704 165.721C304.325 165.505 304.671 163.174 305.523 162.157C308.387 158.736 307.509 165.205 306.76 166.825C305.11 170.393 300.492 172.852 298.202 168.325C297.35 166.641 297.354 164.515 297.787 162.705C298.022 161.719 299.396 158.013 300.324 160.734ZM274.174 153.755C273.914 155.474 272.302 158.899 274.27 160.129C276.001 161.212 279.017 158.861 280.35 157.879C281.736 156.859 284.875 153.933 284.998 157.575C285.061 159.431 283.208 161.658 281.886 162.727C279.064 165.008 273.201 167.054 271.122 162.761C269.989 160.423 270.609 157.094 271.358 154.737C271.965 152.828 274.8 149.603 274.174 153.755ZM311.18 144.343C312.328 145.68 315.05 148.675 313.57 150.579C311.84 152.804 309.029 148.721 307.92 147.585C306.922 146.561 304.822 143.646 305.717 142.1C307.2 139.541 310.172 143.169 311.18 144.343ZM293.133 138.586C296.886 141.038 291.951 142.803 289.813 143.022C287.226 143.287 283.918 143.463 281.542 142.19C278.173 140.385 279.296 137.66 282.561 137.007C285.909 136.339 290.22 136.684 293.133 138.586ZM244.34 130.782C247.1 131.321 250.253 132.022 251.193 135.038C252.163 138.156 250.769 139.191 247.949 138.489C245.341 137.84 241.445 137.186 239.97 134.631C238.208 131.579 241.781 130.284 244.34 130.782Z" fill="#2D2A2A"/>
<path fill-rule="evenodd" clip-rule="evenodd" d="M92.4731 197.778C91.5469 200.777 86.8589 202.766 84.5211 204.589C76.344 210.967 68.3534 217.607 60.9608 224.887C57.1238 228.665 54.2195 233.235 50.8921 237.437C50.0803 238.463 48.642 240.76 47.0497 240.544C45.3028 240.308 44.9496 237.291 45.0053 235.974C45.1961 231.481 49.2886 227.142 52.2071 224.049C55.49 220.57 59 217.181 62.5846 214.013C66.5312 210.526 70.8139 207.529 75.1783 204.595C79.464 201.713 83.573 198.384 88.0299 195.775C90.1294 194.545 93.6157 194.078 92.4731 197.778ZM378.311 169.297C381.724 169.405 385.055 170.527 388.274 171.569C395.355 173.862 402.099 177.042 408.749 180.366C420.407 186.192 431.627 193.241 441.911 201.257C444.061 202.932 446.265 204.289 448.603 205.659C450.099 206.536 452.232 207.607 452.809 209.395C454.273 213.941 446.882 209.378 445.834 208.726L444.358 207.809C422.477 194.211 400.62 181.001 375.869 173.203C374.55 172.787 374.14 171.608 374.832 170.439C375.582 169.173 377.043 169.257 378.311 169.297ZM91.4773 178.811C91.3191 180.195 89.7554 180.51 88.7008 180.954C84.7657 182.611 80.7325 184.024 76.8081 185.709C69.5244 188.836 62.8354 193.373 55.2329 195.746C53.4955 196.289 53.2392 194.531 53.7043 193.335C54.2224 192 55.7783 191.062 56.9036 190.29C60.15 188.061 63.8317 186.458 67.4367 184.909C71.0108 183.372 74.6907 182.21 78.3552 180.922C81.7609 179.724 85.7138 177.496 89.3712 177.331L89.531 177.323C90.695 177.264 91.6616 177.186 91.4773 178.811ZM384.524 157.784C381.044 156.802 384.331 154.593 386.399 154.749C388.706 154.922 390.936 156.014 393.124 156.673C399.814 158.686 406.014 160.889 412.263 164.014C413.195 164.481 417.301 166.693 414.585 167.673C412.703 168.352 408.307 165.44 406.691 164.741C399.589 161.671 391.959 159.88 384.524 157.784Z" fill="#2D2A2A"/>
<path fill-rule="evenodd" clip-rule="evenodd" d="M245.804 164.933C246.239 163.653 251.619 149.666 249.513 149.244C247.283 148.797 244.301 156.912 243.654 158.379C241.265 163.794 239.85 169.604 238.741 175.413C237.969 179.457 237.29 183.6 237.561 187.735C237.768 190.913 239.077 191.394 241.235 193.341C241.235 183.689 242.698 174.068 245.804 164.933Z" fill="#2D2A2A"/>
<path fill-rule="evenodd" clip-rule="evenodd" d="M152.957 104.601C152.798 105.455 152.639 106.309 152.48 107.164C152.577 107.186 160.233 92.3956 161.501 90.6096C165.803 84.5546 171.401 79.5166 176.798 74.4596C188.23 63.7476 201.61 55.1016 212.813 44.1986C216.499 40.6116 223.103 35.1766 221.645 29.1116C220.196 23.0836 207.964 24.3086 203.775 26.0526C197.208 28.7876 191.874 34.5076 186.98 39.4916C181.642 44.9286 176.261 50.3046 171.737 56.4576C166.859 63.0926 162.228 70.2786 159.239 77.9786C155.89 86.6046 154.582 95.5316 152.957 104.601ZM155.471 131.065C150.276 132.667 156.789 133.749 154.754 136.525C152.522 139.569 148.77 130.19 148.209 128.419C144.902 117.956 146.381 105.245 148.187 94.6216C149.099 89.2626 149.688 83.8156 150.918 78.5146C152.118 73.3456 154.731 68.4336 157.145 63.7316C161.978 54.3236 168.378 45.5586 175.641 37.8876C182.926 30.1916 191.046 22.4916 200.659 17.7536C208.602 13.8406 221.192 16.5556 224.91 25.1026C228.709 33.8366 223.571 43.3506 217.495 49.4916C209.569 57.5006 200.933 65.4556 192.03 72.3616C187.455 75.9116 183.62 80.2046 179.175 83.9086C174.444 87.8516 170.351 91.8176 166.853 96.9166C163.465 101.858 159.978 106.795 157.776 112.404C155.365 118.546 155.471 124.567 155.471 131.065Z" fill="#2D2A2A"/>
<path fill-rule="evenodd" clip-rule="evenodd" d="M110.833 92.8604C110.299 81.4864 111.82 70.0814 110.913 58.7374C95.3174 72.5634 103.001 93.9305 111.973 108.932L110.833 92.8604ZM117.584 92.2104C117.683 97.7664 117.998 103.319 117.458 108.847C116.891 114.65 119.613 117.639 123.161 121.913C120.148 124.971 113.234 117.841 111.325 115.739C107.394 111.411 104.469 105.661 101.866 100.464C96.3224 89.3935 92.5043 77.5404 96.9413 65.3854C98.5863 60.8804 100.598 54.7554 104.953 52.1324C109.735 49.2524 113.393 53.3145 115.377 57.4925C120.221 67.6865 116.528 81.2684 117.584 92.2104Z" fill="#2D2A2A"/>
<path fill-rule="evenodd" clip-rule="evenodd" d="M117.584 92.2104C117.458 90.9034 117.332 89.5974 117.206 88.2954C117.332 89.6044 117.458 90.9074 117.584 92.2104Z" fill="#2D2A2A"/>
<path fill-rule="evenodd" clip-rule="evenodd" d="M110.833 92.8603C110.739 90.8653 110.646 88.8713 110.553 86.8823C110.646 88.8793 110.74 90.8693 110.833 92.8603Z" fill="#2D2A2A"/>
<path fill-rule="evenodd" clip-rule="evenodd" d="M452.165 353.515C438.875 356.186 426.747 362.176 424.618 377.112C422.683 390.686 431.929 403.244 443.283 409.598C455.563 416.472 470.95 417.614 483.186 409.996C496.067 401.976 498.989 385.904 491.149 373.295C482.401 359.224 467.746 355.071 452.165 353.515ZM460.706 347.003C476.532 349.322 491.223 360.585 496.554 375.754C502.05 391.391 497 408.583 482.45 417.151C453.045 434.468 413.744 405.609 420.841 372.439C422.643 364.017 427.76 357.495 434.712 352.564C442.387 347.119 451.668 346.971 460.706 347.003Z" fill="#2D2A2A"/>
<path fill-rule="evenodd" clip-rule="evenodd" d="M272.298 464.294C279.806 463.513 287.283 462.389 294.783 461.647C301.885 460.944 308.167 460.196 314.655 456.942C305.794 454.27 296.913 451.74 287.977 449.326C283.545 448.129 279.122 446.862 274.67 445.744C271.226 444.878 268.224 444.38 266.9 440.621C265.359 436.245 269.644 436.908 272.315 438.02C275.999 439.553 280.012 440.506 283.83 441.781C292.352 444.626 300.926 447.243 309.528 449.83C312.202 450.634 327.696 453.608 322.113 458.777C319.724 460.99 314.393 462.205 311.472 463.794C307.725 465.832 303.646 466.644 299.478 467.455C290.791 469.145 281.776 469.794 272.982 471.26C268.491 472.009 264.001 472.758 259.511 473.507C256.88 473.945 255.867 473.902 255.18 470.968C254.68 468.836 255.332 466.703 255.812 464.638C257.03 459.391 258.385 454.171 259.726 448.955C260.236 446.965 261.139 438.217 262.914 437.26C266.941 435.089 263.834 447.2 263.535 448.683C262.405 454.277 261.063 459.832 260.459 465.509C264.414 465.151 268.358 464.78 272.298 464.294Z" fill="#2D2A2A"/>
<path fill-rule="evenodd" clip-rule="evenodd" d="M454.103 383.706L445.226 383.674C448.188 382.987 451.148 382.572 454.103 383.706Z" fill="#2D2A2A"/>
</svg>
