<svg width="109" height="144" viewBox="0 0 109 144" fill="none" xmlns="http://www.w3.org/2000/svg">
<mask id="mask0_87_56" style="mask-type:alpha" maskUnits="userSpaceOnUse" x="0" y="0" width="109" height="144">
<path d="M105.443 107.167C91.2461 158.653 46.1493 145.181 26.5751 131.836L0 96.6526L21.4315 18.6026L70.2955 0C90.1553 14.5585 119.159 57.4254 105.443 107.167Z" fill="#D9D9D9"/>
</mask>
<g mask="url(#mask0_87_56)">
<ellipse cx="60.8655" cy="102.314" rx="45.4349" ry="42.4624" fill="#DBFDDA"/>
<path fill-rule="evenodd" clip-rule="evenodd" d="M200.009 111.86C184.869 110.674 170.425 116.231 158.324 124.893C142.729 136.058 129.51 152.024 120.563 168.848C119.611 169.57 118.673 170.311 117.742 171.058C112.762 175.054 107.897 179.275 103.585 183.973C101.177 186.595 94.8623 192.972 97.6038 196.994C98.1857 197.848 99.1411 198.338 100.098 198.676C102.781 199.623 105.578 200.102 108.225 201.209C111.491 202.575 114.879 204.489 116.971 207.406C117.567 208.236 117.722 209.215 118.522 209.581C119.371 209.969 120.97 209.817 121.898 209.907C123.762 210.087 125.627 210.267 127.491 210.447C131.872 210.87 136.451 210.917 140.736 211.959L160.45 216.754C164.482 217.734 169.116 218.275 172.94 219.886C178.646 222.292 184.09 225.814 189.55 228.717C192.189 230.12 194.83 231.524 197.47 232.927C198.759 233.613 199.642 233.622 201.153 233.737L212.056 234.563C213.815 234.696 214.66 235.394 214.89 233.66L217.425 214.598L218.764 204.518C218.844 203.918 218.82 200.949 219.319 200.59C219.632 200.366 221.468 200.85 221.807 200.891L226.756 201.488C230.321 201.918 233.885 202.347 237.449 202.777C237.738 202.812 239.341 202.794 239.521 203.027C239.732 203.301 239.331 204.868 239.295 205.205C238.917 208.744 238.538 212.284 238.16 215.824C238.116 216.234 237.61 218.137 237.877 218.474C238.062 218.708 239.405 218.737 239.678 218.78C243.116 219.333 246.554 219.886 249.993 220.439C252.455 220.835 255.673 220.815 258.001 221.727C259.337 222.251 260.66 223.59 261.815 224.427L278.584 236.582C281.127 238.426 284.555 237.956 287.653 238.189L323.381 240.87C323.351 239.774 323.321 238.678 323.292 237.581C323.135 231.776 322.978 225.971 322.821 220.165L322.615 212.572C322.602 212.091 322.797 210.685 322.478 210.33C322.054 209.858 320.16 209.654 319.572 209.482C317.6 208.907 315.628 208.333 313.656 207.758C307.872 206.071 302.087 204.384 296.303 202.698C290.586 201.031 284.869 199.364 279.152 197.697C277.196 197.127 275.24 196.556 273.285 195.986C272.833 195.854 271.254 195.679 270.94 195.303C270.545 194.829 270.722 192.805 270.658 192.204C270.348 189.271 269.906 186.351 269.367 183.45C265.48 162.528 256.396 141.276 239.553 127.319C228.419 118.093 214.453 112.992 200.009 111.86ZM197.339 153.816C198.838 152.082 201.356 149.254 204.003 149.724C206.155 150.105 207.328 152.733 208.078 154.48C211.093 161.502 212.028 169.551 212.966 177.055C213.554 181.764 214.027 186.493 214.33 191.228C203.59 190.414 192.85 189.6 182.11 188.786C182.617 185.415 183.024 182.013 183.634 178.658C183.94 176.977 184.786 175.463 185.509 173.909C188.744 166.961 192.275 159.672 197.339 153.816Z" fill="#FF788F"/>
<path fill-rule="evenodd" clip-rule="evenodd" d="M48.7936 14.5586L48.531 14.5631C41.4037 14.7499 35.1184 19.2677 30.2436 24.049C27.8331 26.4131 25.635 29.1939 24.6005 32.4297C23.406 36.1676 23.7991 40.2792 24.7079 44.0307C26.7156 52.3212 29.1695 60.6544 31.9288 68.7341C33.2866 72.7088 35.2554 76.606 36.2801 80.674C37.125 84.0255 33.5674 86.4667 33.4312 89.9108C33.2939 93.3853 35.6671 96.6495 38.928 97.8912C40.317 98.4201 41.9974 97.9782 43.2778 98.5202C44.4488 99.0156 44.8588 100.478 45.0837 101.6C45.39 103.131 45.3349 104.66 45.2478 106.204C45.1943 107.149 45.4334 108.691 44.9654 109.534C44.6441 110.112 44.0586 110.302 43.5541 110.698C42.8657 111.238 42.407 111.911 41.8033 112.532C40.8081 113.557 39.8507 114.112 39.5804 115.607C39.4366 115.267 39.2927 114.928 39.1493 114.588C38.4074 115.925 37.8575 116.566 38.563 117.835C36.3745 117.623 35.0779 121.534 34.5042 123.017C33.4535 125.732 32.7319 128.552 31.6788 131.268C30.2355 134.991 28.3392 138.666 27.4182 142.562C26.6447 145.836 26.0325 149.199 25.3449 152.497C24.9575 154.353 24.62 156.239 23.9113 158.009C23.6358 158.696 23.1244 159.159 22.8076 159.772C22.3744 160.61 22.5438 161.053 22.5231 161.972C22.4866 163.609 21.438 164.672 21.1082 166.262C20.7561 167.962 20.4684 169.68 20.113 171.383C19.3971 174.812 18.0709 178.237 17.7516 181.711C17.3808 185.746 16.5854 189.73 16.1855 193.765C15.8354 197.291 16.4303 201.077 15.6827 204.488C15.0198 207.515 15.8416 210.284 16.1341 213.29C16.2083 214.053 15.015 218.597 16.9327 217.724C16.5725 218.795 16.0676 219.306 16.0405 220.481C16.0154 221.58 16.303 222.71 16.5381 223.776C16.9919 225.835 17.2941 228.08 18.1831 230.01C19.1884 232.192 20.7204 232.454 22.8031 233.202C24.2132 233.709 26.7521 235.518 27.8631 233.583C28.5256 235.57 29.819 234.197 31.2687 234.086C31.259 234.086 32.0986 234.392 32.2558 234.413C32.7655 234.48 33.368 234.244 33.8753 234.202C35.1399 234.099 36.3806 234.265 37.6177 234.518C40.4682 235.099 43.2259 235.904 46.1186 236.31C51.7689 237.102 57.3062 236.727 62.9647 237.074C74.0386 237.752 85.2956 237.183 96.3779 236.889C97.5676 236.858 98.8496 237.022 100.023 236.842C101.289 236.647 101.565 236.057 102.551 235.467C104.19 234.486 106.008 235.44 107.708 235.798C112.7 236.851 117.913 236.929 122.945 237.947C133.168 240.015 142.587 244.096 152.379 247.539C156.624 249.031 161.607 251.448 166.185 251.555C171.733 251.671 170.422 246.288 169.403 242.828C172.608 243.666 177.642 247.496 180.9 245.273C184.783 242.625 179.843 238.221 179.61 235.108C186.55 236.527 194.422 239.639 201.466 237.11C202.821 236.623 204 235.594 205.456 235.427C206.968 235.253 208.567 235.779 210.096 235.77C213.58 235.748 216.963 235.291 220.446 235.714C228.21 236.656 235.865 237.172 243.692 237.375C251.572 237.579 259.453 238.039 267.337 238.02C271.338 238.01 275.414 237.543 279.408 237.752C280.976 237.834 284.35 238.956 285.452 237.387C286.558 238.693 287.498 237.82 288.917 237.965C288.654 237.938 289.656 238.509 289.807 238.564C290.553 238.837 291.25 238.754 292.029 238.746C294.103 238.725 296.041 239.682 298.105 239.589C298.627 239.566 299.022 239.416 299.465 239.24C299.57 239.198 299.545 238.753 299.713 238.716C300.723 238.493 300.462 239.102 301.103 239.41C301.813 239.75 302.865 239.199 302.46 240.246C304.389 240.163 306.216 240.803 307.97 239.676C307.141 241.482 310.038 239.982 310.796 239.953C312.054 239.903 313.156 240.523 314.412 240.665C315.917 240.836 317.429 240.149 318.902 240.568C320.056 240.897 320.451 241.688 321.652 241.283C322.673 240.94 323.31 240.194 323.805 239.379C324.488 238.253 324.576 237.751 326.223 237.731C327.445 237.717 328.673 237.976 329.906 237.973C331.32 237.97 332.873 237.823 334.163 238.485C335.553 239.197 336.369 240.283 337.911 240.841C344.842 243.352 352.45 242.687 359.682 242.644C362.733 242.626 364.972 242.903 365.829 239.474C366.553 236.578 366.843 233.549 367.533 230.628C368.379 227.05 369.309 223.73 371.186 220.531C373.007 217.428 374.539 214.223 376.125 211.001C379.422 204.298 384.012 198.596 389.13 193.149C391.074 191.08 393.302 188.774 393.395 185.794C393.459 183.221 392.308 180.555 390.799 178.505C389.451 176.676 387.231 174.612 384.719 175.038C383.206 175.295 382.215 176.497 381.086 177.399C379.852 178.384 378.508 179.055 377.021 179.592C373.553 180.845 370.645 182.216 367.643 184.379C364.604 186.567 361.764 189.018 359.136 191.672C354.092 196.767 348.923 202.06 346.025 208.657C344.883 211.257 344.153 213.763 343.374 216.458C342.609 219.104 340.526 218.375 338.184 217.995C335.33 217.531 332.462 217.282 329.589 216.989C328.507 216.878 326.983 216.845 326.331 215.839C325.613 214.729 326.436 213.291 326.501 212.139C326.536 211.524 326.329 211.071 326.277 210.471C326.218 209.788 326.422 209.165 326.423 208.486C326.424 207.025 325.73 205.724 324.576 204.839C322.418 203.183 319.269 202.195 316.714 201.284C313.225 200.04 309.486 199.428 305.893 198.54C301.847 197.54 297.777 196.638 293.709 195.73C289.712 194.838 285.722 193.92 281.682 193.232C279.312 192.829 276.742 192.976 274.445 192.24C272.004 191.456 272.408 189.037 272.416 186.893C272.427 183.353 271.982 179.708 271.456 176.208C270.336 168.767 267.668 161.485 265.243 154.374C262.907 147.526 260.013 140.953 255.235 135.395C250.584 129.985 244.875 125.089 238.953 121.068C232.783 116.879 225.917 113.852 219.476 110.112C220.884 109.052 222.563 108.147 223.371 106.514C224.285 104.67 223.898 102.466 223.859 100.495C223.815 98.2712 223.746 96.319 222.94 94.2004C222.499 93.0401 220.793 90.8392 221.054 89.5775C221.492 87.4589 226.197 85.9115 227.93 85.0397C230.647 83.6723 233.369 82.2833 235.874 80.557C238.277 78.901 240.538 76.9077 241.994 74.3656C242.406 73.6444 242.746 72.8868 243.01 72.1005C243.304 71.2232 243.098 70.9242 243.989 70.86C245.41 70.757 247.54 72.1619 248.738 72.7826C254.911 75.9825 261.69 80.2888 268.974 80.003C271.617 79.8997 274.587 79.0818 275.522 76.3669C276.752 72.7926 274.183 69.1002 271.93 66.5185C276.326 67.1991 284.432 69.3261 287.901 65.4624C290.212 62.888 288.469 58.8016 286.53 56.5692C283.969 53.6204 280.318 51.825 276.945 49.9487C281.084 48.3945 285.665 47.4006 289.305 44.7998C292.786 42.3128 292.355 38.4918 289.606 35.5582C286.667 32.4221 281.528 30.816 277.485 29.6517C272.527 28.2236 267.602 28.3381 262.493 28.4339C253.323 28.6056 245.447 31.9352 237.926 36.9691C233.95 39.631 230.03 42.5036 226.504 45.7274C223.196 48.7509 219.667 51.5624 216.407 54.6186C213.249 57.5798 210.765 61.2487 207.432 64.0151C204.598 66.3673 201.49 69.7013 197.89 70.7454C194.072 71.8526 190.635 73.6839 186.784 74.7739C182.416 76.01 178.664 78.0772 174.616 80.0493C157.629 88.3259 139.393 93.7122 121.483 99.6542C112.323 102.693 103.101 104.835 93.7491 107.156C89.0525 108.322 84.6914 108.944 79.845 108.733C78.7274 108.685 77.6602 108.656 76.5581 108.809C75.7501 108.921 75.1358 109.222 74.4134 108.746C73.3753 108.062 72.9851 106.284 72.3664 105.271C75.8153 104.218 79.1918 103.078 80.7656 99.5967C81.757 97.4027 82.2716 94.8438 82.7064 92.4897C82.9398 91.2228 82.9451 89.9444 83.1444 88.6767C83.2538 87.9766 83.5918 87.245 83.5658 86.5297C83.6432 86.9277 86.2133 85.6189 86.5861 85.3758C88.0241 84.4375 88.2859 82.5459 88.2741 80.9494C88.2603 79.1461 87.7077 77.164 86.4645 75.7965C85.8762 75.1491 85.176 74.6637 84.3207 74.4199C83.7137 74.2466 82.9131 74.4734 82.3778 74.2989C80.0034 73.5258 79.7376 67.7379 79.4009 65.6308C78.6586 60.9881 77.9191 56.5556 76.317 52.1052C73.396 43.9916 69.6366 36.1062 65.1588 28.7189C61.3222 22.3888 57.489 14.6489 49.0533 14.5586H48.7936ZM121.719 209.466C125.133 210.048 128.404 211.238 131.702 212.246C134.783 213.188 137.905 213.788 141.065 214.401C147.354 215.619 153.781 216.735 159.979 218.324C161.724 218.771 162.642 219.781 164.165 220.483C165.293 221.004 166.353 220.477 167.527 220.432C170.084 220.336 172.92 221.158 175.379 221.77C181.183 223.214 186.333 225.723 191.585 228.497C192.055 228.745 195.233 230.177 195.083 230.77C194.96 231.255 190.921 229.955 190.278 229.858C187.025 229.37 183.848 228.36 180.619 227.733C177.968 227.217 175.288 226.868 172.649 226.296C169.712 225.66 163.456 223.447 163.207 228.225C162.938 233.39 168.727 234.978 172.207 237.387C171.819 238.045 166.237 235.873 165.545 235.653C163.171 234.899 160.968 233.54 158.552 232.961C154.346 231.954 154.856 236.529 157.177 238.564C159.757 240.825 164.022 241.508 165.451 244.988C163.575 245.654 161.123 244.403 159.4 243.78C157.137 242.963 154.866 242.159 152.59 241.38C147.48 239.63 142.627 237.221 137.49 235.554C126.95 232.136 115.809 231.156 104.791 230.548C105.773 226.797 106.847 223.067 107.729 219.291C108.107 217.675 108.452 216.051 108.738 214.417C108.937 213.28 108.768 210.56 109.563 209.664C110.531 208.572 113.052 210.105 114.424 210.076C115.768 210.048 116.748 209.364 117.99 209.149C119.169 208.944 120.565 209.269 121.719 209.466ZM319.757 231.181C319.757 232.975 320.073 235.15 317.678 235.36C315.741 235.529 311.952 235.747 310.407 234.391C311.888 233.68 313.571 233.556 315.143 233.146C316.782 232.718 318.295 232.016 319.757 231.181ZM280.233 198.506C280.961 198.511 282.19 199.309 282.855 199.531C284.07 199.939 285.306 200.282 286.548 200.606C290.278 201.579 295.081 201.731 296.793 205.675C297.648 207.643 298.241 212.706 301.212 212.687C303.853 212.671 305.434 208.916 307.318 207.58C309.265 206.2 312.352 207.14 314.451 207.739C316.585 208.348 319.896 209.129 319.657 211.793C319.485 213.708 319.134 215.451 319.15 217.407C319.171 219.897 319.384 222.382 319.384 224.873C317.886 222.851 316.58 218.787 313.926 217.974C311.245 217.152 309.728 221.767 309.031 223.535C308.166 225.726 307.08 228.212 307.014 230.586C306.993 231.332 307.453 233.38 306.926 233.993C306.459 234.538 304.662 234.143 304.082 234.084C300.488 233.715 296.913 233.257 293.308 232.949C291.457 232.792 290.953 232.391 291.134 230.43C291.276 228.889 291.321 227.42 291.124 225.874C290.249 218.968 285.932 212.652 278.633 211.452C274.235 210.73 269.098 211.258 264.707 211.952C263.015 212.22 261.177 213.027 259.458 212.957C258.187 212.905 258.597 212.834 258.336 211.656C258.155 210.833 257.765 210.13 257.129 209.559C256.627 209.108 255.989 209.363 255.516 208.773C255.173 208.347 255.224 207.766 255.063 207.274C254.747 206.317 254.176 205.026 253.041 204.784C251.213 204.395 249.27 206.806 248.347 208.049C247.394 209.335 247.106 213.173 245.573 213.676C243.805 214.255 241.701 211.971 241.332 210.533C240.836 208.598 241.461 206.504 241.759 204.588C241.78 204.451 241.868 203.178 241.964 203.095C242.222 202.871 244.166 202.933 244.511 202.917C246.205 202.837 247.902 202.833 249.597 202.829C256.245 202.812 262.757 202.169 269.361 201.482C268.402 203.022 266.76 205.551 268.446 207.177C269.695 208.382 271.949 207.778 273.518 208.026C275.735 208.376 279.471 210.448 281.583 208.934C284.56 206.798 281.192 203.129 280.087 201.111C279.85 200.679 278.973 199.156 279.345 198.649C279.667 198.209 279.761 198.502 280.233 198.506ZM329.806 222.238C331.326 222.695 332.857 223.134 334.41 223.472C336.231 223.869 339.055 223.484 339.941 225.457C340.616 226.958 340.281 229.379 339.733 230.874C339.106 232.586 337.634 233.026 335.896 233.157C333.869 233.309 331.814 232.987 329.811 232.714C329.021 232.606 328.179 232.412 327.377 232.411C326.901 232.41 325.94 232.839 325.516 232.488C324.968 232.033 325.329 229.451 325.372 228.832C325.478 227.299 325.774 225.786 325.854 224.25C325.912 223.148 325.49 221.649 326.802 221.414C327.619 221.267 329.096 222.025 329.806 222.238ZM207.073 191.889C208.209 192.082 209.338 192.221 210.492 192.204C211.203 192.193 212.054 191.955 212.71 192.339C213.924 193.048 213.743 194.917 213.702 196.082C213.651 197.497 213.525 198.933 213.372 200.34C213.226 201.686 212.476 203.902 213.535 205.055C214.282 204.25 214.65 201.618 216.091 201.714C217.676 201.82 216.943 204.314 216.803 205.208C216.026 210.145 215.141 215.086 214.447 220.038C214.117 222.392 213.691 224.729 213.47 227.095C213.322 228.682 213.272 230.112 211.471 230.441C209.801 230.746 207.925 230.226 206.238 230.186C204.5 230.145 203.505 230.028 202.505 228.481C204.899 227.965 208.69 228.281 210.039 225.787C211.611 222.878 208.295 220.26 206.663 218.272C205.411 216.745 202.85 211.668 200.525 214.683C199.688 215.769 199.536 217.426 199.114 218.688C198.426 220.74 197.586 222.763 196.762 224.764C189.222 220.93 181.485 217.473 173.262 215.321C175.358 211.83 177.953 208.687 179.523 204.904C181.281 200.664 182.738 196.308 184.536 192.081C187.386 193.72 190.434 189.747 193.272 189.587C197.756 189.335 202.678 191.138 207.073 191.889ZM251.738 220.474C253.302 221.391 255.601 223.175 255.976 225.019C256.625 228.207 252.931 226.075 251.791 225.378C249.404 223.917 247.065 223.451 244.324 224.351C240.809 225.505 237.569 227.453 233.796 225.973C231.919 225.236 227.755 223.662 228.878 220.837C229.653 218.89 231.92 220.56 233.118 221.258C236.255 223.086 238.853 221.928 241.987 220.609C245.122 219.289 248.652 218.663 251.738 220.474ZM363.066 204.114C364.321 205.866 361.77 205.488 360.65 205.659C358.308 206.015 355.896 207.855 356.542 210.458C357.171 212.996 359.636 214.583 360.106 217.247C360.51 219.535 360.121 222.43 357.878 223.686C356.618 224.392 353.865 224.682 352.597 223.872C350.661 222.635 353.065 220.792 354.346 220.18C356.044 219.367 357.414 218.928 356.574 216.794C355.55 214.193 353.562 212.196 353.738 209.22C353.884 206.754 355.206 203.952 357.613 202.927C359.337 202.194 361.891 202.472 363.066 204.114ZM191.725 196.555C189.556 196.463 189.469 199.046 189.579 200.316C189.728 202.052 189.408 203.903 189.371 205.645C189.322 207.953 188.832 215.509 192.974 214.387C195.638 213.665 197.83 211.151 199.971 209.535C201.941 208.048 206.949 206.264 207.274 203.445C207.64 200.26 203.691 199.664 201.428 199.158C198.198 198.435 195.062 196.696 191.725 196.555ZM202.293 112.62C205.733 112.947 209.154 113.45 212.428 114.576C214.643 115.337 218.046 115.883 219.616 117.752C220.973 119.368 220.385 121.672 220.826 123.581C221.423 126.165 223.233 125.811 224.989 124.198C227.09 122.267 227.698 120.869 230.623 122.681C236.679 126.432 241.48 131.97 246.283 137.101C242.569 138.209 235.282 138.477 234.049 143.049C233.374 145.548 235.407 147.366 237.234 148.73C239.592 150.491 242.054 152.12 244.361 153.952C246.514 155.662 251.342 162.468 252.707 156.484C253.553 152.78 251.968 148.951 252.641 145.292C255.561 149.931 258.527 154.558 261.205 159.339C263.484 163.409 264.809 167.763 265.903 172.263C264.198 172.372 262.424 171.52 260.74 172.024C259.117 172.508 258.358 174.02 258.244 175.586C258.05 178.242 259.295 180.945 259.922 183.495C260.351 185.246 260.845 189.221 263.011 189.791C265.479 190.441 267.028 186.7 268.129 185.18C269.176 186.767 269.159 189.088 269.312 190.907C269.417 192.157 270.125 194.495 268.698 195.186C267.361 195.834 264.544 195.023 263.114 194.963C260.463 194.852 257.76 194.641 255.107 194.718C252.601 194.791 248.914 196.11 247.935 193.077C247.269 191.011 246.682 183.588 243.126 187.615C241.547 189.404 240.312 191.442 238.786 193.265C237.248 195.103 235.848 195.224 233.55 195.131C229.001 194.947 224.558 195.807 220.107 196.502C216.201 197.112 216.713 193.846 216.771 190.939C216.86 186.432 215.953 181.719 215.458 177.238C214.281 166.58 211.866 156.051 208.151 145.971C211.259 144.929 216.83 149.135 219.128 145.941C221.017 143.315 218.591 139.697 217.603 137.243C216.371 134.18 215.747 130.981 213.738 128.266C213.103 127.409 212.201 126.261 210.973 126.55C209.92 126.798 209.5 128.121 208.907 128.868C207.026 131.238 204.622 133.015 202.949 135.601C201.926 137.182 201.13 138.872 200.798 140.729C200.707 141.239 200.823 142.285 200.458 142.713C199.327 144.04 195.764 144.02 194.181 144.834C188.775 147.613 186.875 155.703 184.775 160.804C184.184 162.241 183.598 163.681 183.283 165.204C183.073 166.221 183.083 167.515 182.523 168.428C181.3 170.421 177.499 168.641 175.634 168.333C172.508 167.815 169.397 167.322 166.259 166.888C164.344 166.623 161.556 165.94 160.097 167.611C158.585 169.343 159.455 172.072 160.214 173.931C161.453 176.965 163.037 179.863 164.345 182.87C165.388 185.268 165.908 188.357 167.913 190.205C169.649 191.806 172.523 192.265 174.568 190.962C175.735 190.218 178.731 183.025 179.521 183.346C178.094 188.902 176.002 194.568 173.791 199.87C173.112 201.499 171.947 204.82 170.232 205.704C168.81 206.436 165.584 205.052 164.129 204.784C162.75 204.529 160.027 203.426 158.708 204.234C157.109 205.215 156.915 207.829 156.735 209.452C156.602 210.655 156.844 211.553 155.357 211.494C154.31 211.452 153.254 210.949 152.249 210.696C149.916 210.109 147.495 209.721 145.12 209.344C139.628 208.47 134.138 207.599 128.648 206.703C123.928 205.933 119.27 205.938 115.005 203.732C112.844 202.615 110.365 202.273 108.064 201.526C105.781 200.785 103.505 200.304 101.116 200.025C95.8933 199.417 90.8114 198.821 85.6501 197.779C82.8255 197.208 80.0062 196.611 77.1967 195.972C74.6958 195.403 72.278 194.499 69.7894 193.942C67.7188 193.478 66.0182 193.827 65.1313 191.512C64.4951 189.852 64.643 187.991 64.4797 186.254C63.733 178.315 66.5551 170.332 67.1325 162.437C67.3197 159.88 67.3773 157.315 67.5722 154.76C67.6613 153.589 67.6074 150.181 68.994 149.55C69.12 150.486 69.0219 152.061 70.1017 152.525C69.5742 152.299 70.2667 155.064 70.304 155.342C70.4514 156.446 70.0835 157.627 70.2776 158.711C70.1237 159.092 70.1909 159.379 70.4786 159.572C70.6747 159.729 70.8177 159.926 70.9069 160.166C70.9207 160.938 70.6909 160.483 70.68 160.75C70.5714 163.406 71.0272 166.16 70.8323 168.882C70.6261 171.758 69.9741 174.58 69.479 177.417C69.0345 179.964 68.5555 182.515 68.1848 185.073C67.9247 186.869 67.7318 188.93 68.7123 190.564C70.5742 193.666 75.9644 193.329 79.1039 193.836C84.3219 194.68 89.5472 195.441 94.7843 196.158C96.7949 196.433 98.8297 197.061 100.864 197.093C103.037 197.126 104.2 196.262 105.57 194.682C108.33 191.5 110.11 187.885 112.409 184.423C113.7 182.479 114.774 181.966 116.948 181.373C118.967 180.821 120.588 179.37 122.23 178.163C125.681 175.628 130.137 172.871 132.401 169.137C134.784 165.208 131.426 163.904 128.211 162.831C128.993 160.783 130.528 159.138 131.792 157.376C133.229 155.372 134.532 153.291 136.08 151.363C139.234 147.432 142.384 143.522 145.445 139.519C148.061 136.097 150.705 132.855 154.045 130.083C157.398 127.299 161.132 125.017 164.815 122.686C166.739 121.468 170.116 118.357 172.548 118.675C174.906 118.984 175.839 123.312 176.428 125.13C177.104 127.218 177.343 130.128 178.918 131.771C181.234 134.186 183.638 130.382 184.743 128.629C186.766 125.418 188.836 122.235 190.857 119.022C191.777 117.556 193.107 116.162 193.654 114.501C193.66 114.481 193.916 113.053 193.658 113.252L193.64 113.268L193.657 113.249C194.235 112.685 196.37 112.568 197.168 112.5L197.241 112.494C198.92 112.338 200.619 112.461 202.293 112.62ZM224.844 202.659C226.778 202.648 228.706 202.869 230.631 203.025C232.322 203.161 233.872 202.906 235.56 202.806C237.648 202.682 238.681 202.898 238.2 205.022C237.85 206.568 237.43 208.627 235.819 209.281C233.642 210.164 230.71 210.045 228.391 210.379C226.688 210.625 224.99 210.846 223.295 211.126C222.169 211.312 221.591 211.506 221.063 210.249C220.623 209.196 220.907 207.789 221.057 206.701C221.173 205.866 221.104 204.397 221.504 203.655C222.102 202.546 223.667 202.667 224.844 202.659ZM134.683 181.474C131.842 184.032 129.93 187.303 127.784 190.405C126.474 192.299 123.911 195.319 125.772 197.615C127.358 199.572 131.045 199.124 133.263 199.219C136.748 199.367 139.595 200.918 142.912 201.718C151.266 203.734 144.328 189.902 143.17 187.015C142.358 184.99 141.521 182.974 140.539 181.022C140.096 180.142 139.212 177.575 138.111 177.239C136.514 176.752 135.693 180.564 134.683 181.474ZM206.459 152.391C207.787 154.891 208.002 158.352 208.632 161.082C210.556 169.432 211.681 177.935 212.566 186.444C208.166 184.725 203.522 184.606 198.876 184.186C195.51 183.881 192.419 183.532 189.052 183.673C188.478 183.697 186.828 183.984 186.355 183.504C185.72 182.859 186.489 181.059 186.677 180.38C187.697 176.695 188.146 172.887 189.305 169.224C190.488 165.489 191.925 161.759 193.454 158.148C194.572 155.507 196.109 152.932 198.819 151.636C201.192 150.503 204.986 149.618 206.459 152.391ZM224.579 168.641C222.766 171.333 220.47 173.688 218.7 176.405C217.444 178.333 215.974 181.898 218.99 183.123C220.048 183.553 221.298 183.367 222.407 183.386C224.122 183.415 225.82 183.561 227.538 183.52C229.163 183.482 230.773 183.288 232.393 183.205C233.415 183.152 234.698 183.23 235.598 182.652C238.01 181.102 236.266 177.937 235.489 175.912C234.664 173.761 233.55 171.727 232.475 169.689C231.73 168.275 230.616 165.395 228.921 164.818C226.914 164.136 225.416 167.399 224.579 168.641ZM136.674 138.138C132.689 142.701 129.23 147.679 125.972 152.764C124.382 155.245 122.838 157.755 121.297 160.265C120.289 161.908 119.531 164.01 118.303 165.498C115.5 168.892 114.72 161.486 114.308 159.877C112.784 153.941 110.897 148.053 109.218 142.155L110.939 142.155C117.797 142.151 124.371 142.051 131.048 140.061C132.939 139.498 134.662 138.275 136.674 138.138ZM151.159 139.288C148.989 140.866 135.103 150.132 140.944 153.708C142.153 154.448 144.128 154.112 145.494 154.218C147.245 154.354 149.023 154.521 150.752 154.827C152.991 155.223 155.166 155.913 157.415 156.262C159.203 156.541 161.573 156.865 163.17 155.768C165.806 153.959 164.206 150.405 163.336 148.104C162.099 144.835 160.928 140.459 157.859 138.512C157.145 138.059 156.27 136.441 155.502 136.293C154.299 136.061 152.039 138.648 151.159 139.288ZM74.5471 62.4266C75.5941 63.2157 75.6419 64.8545 75.9134 66.0112C76.8267 69.902 78.1014 73.6894 78.8579 77.6218C79.5954 81.4571 79.8271 85.2329 79.4653 89.1197C79.2238 91.7122 79.1958 94.9021 77.5961 97.1097C75.6816 99.7512 71.8907 99.6159 69.0236 100.398C66.265 101.151 63.53 103.482 66.5389 105.906C67.6082 106.767 69.0122 106.907 70.0693 107.736C71.3732 108.76 72.122 110.595 72.6759 112.095C73.1322 113.329 73.1188 113.565 71.7562 114.002C71.1338 114.201 70.5049 114.327 69.8501 114.274C68.359 114.152 67.0288 113.182 65.7804 112.453C62.5964 110.594 58.9189 108.113 55.1174 107.832C53.9023 107.743 52.521 108.232 51.3394 107.844C50.2385 107.481 50.5764 107.259 50.3852 106.25C49.6279 102.253 49.3204 98.3287 47.2511 94.7121C46.2296 92.9275 43.5294 89.277 41.7194 92.0554C40.9637 93.2157 40.6902 93.7825 39.0135 93.4264C37.6493 93.1371 36.1505 92.0742 36.4211 90.5219C36.676 89.0575 38.631 88.0604 39.8158 87.4186C41.394 86.5645 42.5006 86.663 44.219 86.4607C48.9407 85.9047 45.6303 79.1022 44.9496 76.5497C44.5217 74.9455 44.0213 72.872 45.1445 71.4235C46.854 69.2203 50.5781 69.9447 52.9241 70.2573C56.1685 70.6895 59.7103 70.9198 62.7468 69.4694C65.9591 67.9351 67.3282 64.4745 70.3404 62.7922C71.4535 62.1703 73.4037 61.5636 74.5471 62.4266ZM60.4493 90.5286C58.2171 90.4991 59.3022 93.6343 59.9132 94.6884C61.2009 96.9116 63.959 97.7714 66.3809 96.9516C68.2966 96.303 70.3687 93.4379 67.3683 92.963C65.9295 92.7355 64.5052 92.8281 63.1418 92.1539C62.365 91.7699 61.361 90.5406 60.4493 90.5286ZM66.0494 73.8568C64.6624 74.6862 67.0295 79.9836 67.4282 81.0556C68.0774 82.8055 68.6552 83.935 67.0036 85.2837C65.8553 86.2217 63.5903 87.0311 64.6717 88.9003C65.6725 90.6298 69.1065 89.9045 70.5028 89.0584C72.5324 87.8278 71.9344 85.4709 71.4866 83.5367C71.1941 82.2694 68.519 72.38 66.0494 73.8568ZM284.446 39.075C280.169 40.8747 275.795 42.5004 271.27 43.5848C267.315 44.5328 263.426 45.555 259.349 45.3323C255.578 45.1267 255.129 48.776 257.283 51.3034C258.453 52.6764 259.811 52.6421 261.516 52.6952C263.512 52.7574 265.326 53.3031 267.251 53.7916C270.183 54.5356 273.152 55.1674 275.994 56.2176C277.46 56.7596 278.907 57.397 280.215 58.2536C281.037 58.7924 282.872 59.7631 281.901 60.5159C280.499 61.6035 276.335 60.1136 274.666 60.0154C270.779 59.7871 266.899 59.4414 263.034 58.962C261.141 58.727 259.109 58.4946 257.316 57.8173C256.143 57.3743 254.844 56.2742 253.516 56.5536C250.714 57.1432 252.102 61.2814 253.374 62.6277C255.264 64.627 258.132 65.5099 260.573 66.6459C262.279 67.4401 263.974 68.2811 265.63 69.17C266.413 69.5899 270.059 71.1629 269.944 72.3571C269.823 73.6124 266.944 72.9794 266.232 72.8652C261.481 72.1041 257.194 70.2944 252.804 68.4424C250.883 67.6317 248.934 66.8538 247.053 65.9549C245.739 65.3267 244.447 64.3696 242.995 64.0842C239.572 63.4108 239.722 67.1767 238.374 69.2111C234.369 75.2573 226.629 77.8365 220.607 81.3306C218.329 82.6521 216.156 84.174 214.066 85.7662C212.573 86.9029 211.976 88.4676 210.308 86.9684C208.919 85.7187 208.249 83.8858 207.358 82.2965C206.321 80.4461 204.936 78.8124 203.874 76.9772C202.303 74.2658 201.833 71.6798 205.282 70.6819C208.902 69.6346 211.768 68.0728 214.845 65.8444C222.398 60.3754 228.664 53.3917 236.195 47.8808C243.171 42.775 250.569 37.9837 259.315 36.6127C267.605 35.3127 276.699 35.6328 284.446 39.075ZM58.1826 78.3474C58.3597 79.8529 58.7361 83.064 60.8593 83.1841C63.438 83.3298 61.7062 75.6133 60.2455 74.7447C57.9067 73.3541 58.0327 77.0717 58.1826 78.3474ZM82.1768 77.7327C85.3956 77.9954 86.313 81.4683 83.0958 82.698L82.1768 77.7327ZM70.2419 74.6847C70.6552 76.2609 70.5081 78.7902 71.7921 80C73.6021 81.7048 74.3902 79.203 74.3768 77.7764C74.3639 76.3655 73.654 72.8363 71.737 72.6503C70.0992 72.4914 71.4623 74.3618 70.2419 74.6847ZM35.5042 39.617C36.6809 42.029 35.4159 44.4095 34.7117 46.7803C36.1562 47.2389 38.1027 46.8921 38.9848 48.396C39.5407 49.344 39.4438 50.7713 39.2773 51.7979C39.1408 52.6401 38.4398 53.774 39.0233 54.5555C39.787 55.5785 41.683 55.1056 42.5253 56.2435C43.8058 57.9742 43.0873 61.9272 41.2907 63.23C38.7656 65.0601 40.2725 60.569 40.4268 59.7511C40.8142 57.7024 38.6594 57.981 37.1877 57.1535C36.398 56.7097 36.257 56.6239 36.0759 55.6763C35.9086 54.8034 35.9973 54.1109 36.2084 53.1701C36.9248 49.9782 35.6723 50.4995 33.0982 49.7962C30.8777 49.1891 31.0556 47.4413 31.6196 45.6041C32.0621 44.164 33.381 41.8015 31.9523 40.5737C31.3854 40.0864 30.5244 40.3945 30.402 39.3775C30.3194 38.691 31.2546 37.5654 31.7457 37.1707C33.4381 35.8096 34.8162 38.2064 35.5042 39.617Z" fill="black"/>
</g>
</svg>
