<svg width="111" height="34" viewBox="0 0 111 34" fill="none" xmlns="http://www.w3.org/2000/svg">
<path d="M8.764 27.336C7.196 27.336 5.69333 27.1307 4.256 26.72C2.81867 26.2907 1.66133 25.74 0.784 25.068L2.324 21.652C3.164 22.2493 4.15333 22.744 5.292 23.136C6.44933 23.5093 7.616 23.696 8.792 23.696C9.688 23.696 10.4067 23.612 10.948 23.444C11.508 23.2573 11.9187 23.0053 12.18 22.688C12.4413 22.3707 12.572 22.0067 12.572 21.596C12.572 21.0733 12.3667 20.6627 11.956 20.364C11.5453 20.0467 11.004 19.7947 10.332 19.608C9.66 19.4027 8.91333 19.216 8.092 19.048C7.28933 18.8613 6.47733 18.6373 5.656 18.376C4.85333 18.1147 4.116 17.7787 3.444 17.368C2.772 16.9573 2.22133 16.416 1.792 15.744C1.38133 15.072 1.176 14.2133 1.176 13.168C1.176 12.048 1.47467 11.0307 2.072 10.116C2.688 9.18267 3.60267 8.44533 4.816 7.904C6.048 7.344 7.588 7.064 9.436 7.064C10.668 7.064 11.8813 7.21333 13.076 7.512C14.2707 7.792 15.3253 8.22133 16.24 8.8L14.84 12.244C13.9253 11.7213 13.0107 11.3387 12.096 11.096C11.1813 10.8347 10.2853 10.704 9.408 10.704C8.53067 10.704 7.812 10.8067 7.252 11.012C6.692 11.2173 6.29067 11.488 6.048 11.824C5.80533 12.1413 5.684 12.5147 5.684 12.944C5.684 13.448 5.88933 13.8587 6.3 14.176C6.71067 14.4747 7.252 14.7173 7.924 14.904C8.596 15.0907 9.33333 15.2773 10.136 15.464C10.9573 15.6507 11.7693 15.8653 12.572 16.108C13.3933 16.3507 14.14 16.6773 14.812 17.088C15.484 17.4987 16.0253 18.04 16.436 18.712C16.8653 19.384 17.08 20.2333 17.08 21.26C17.08 22.3613 16.772 23.3693 16.156 24.284C15.54 25.1987 14.616 25.936 13.384 26.496C12.1707 27.056 10.6307 27.336 8.764 27.336ZM20.1795 27V7.4H24.7155V27H20.1795ZM29.367 27V7.4H33.119L44.683 21.512H42.863V7.4H47.343V27H43.619L32.027 12.888H33.847V27H29.367ZM49.4042 27L58.1403 7.4H62.6203L71.3843 27H66.6243L59.4563 9.696H61.2483L54.0523 27H49.4042ZM53.7722 22.8L54.9763 19.356H65.0563L66.2883 22.8H53.7722ZM77.0553 27L70.6433 7.4H75.3473L80.9193 24.76H78.5673L84.3913 7.4H88.5913L94.1913 24.76H91.9233L97.6353 7.4H101.975L95.5633 27H90.6913L85.7353 11.768H87.0233L81.9273 27H77.0553Z" fill="black"/>
<circle cx="107" cy="23" r="4" fill="#09A206" fill-opacity="0.63"/>
</svg>
