<svg width="200" height="50" viewBox="0 0 200 50" fill="none" xmlns="http://www.w3.org/2000/svg">
<path d="M35.4167 4.1665H14.5834C8.83039 4.1665 4.16669 8.8302 4.16669 14.5832V35.4165C4.16669 41.1695 8.83039 45.8332 14.5834 45.8332H35.4167C41.1697 45.8332 45.8334 41.1695 45.8334 35.4165V14.5832C45.8334 8.8302 41.1697 4.1665 35.4167 4.1665Z" stroke="#09A206" stroke-opacity="0.63" stroke-width="2" stroke-linecap="round" stroke-linejoin="round"/>
<path d="M33.3333 23.6876C33.5904 25.4215 33.2943 27.1923 32.487 28.7481C31.6797 30.3039 30.4024 31.5656 28.8367 32.3536C27.271 33.1417 25.4967 33.416 23.7662 33.1375C22.0357 32.859 20.437 32.042 19.1976 30.8026C17.9581 29.5631 17.1411 27.9645 16.8626 26.2339C16.5842 24.5034 16.8584 22.7291 17.6465 21.1634C18.4345 19.5978 19.6962 18.3204 21.252 17.5131C22.8079 16.7059 24.5786 16.4097 26.3125 16.6668C28.0811 16.9291 29.7184 17.7532 30.9827 19.0174C32.2469 20.2817 33.0711 21.9191 33.3333 23.6876Z" stroke="#09A206" stroke-opacity="0.63" stroke-width="2" stroke-linecap="round" stroke-linejoin="round"/>
<path d="M36.4583 13.5415H36.4791" stroke="#09A206" stroke-opacity="0.63" stroke-width="5" stroke-linecap="round" stroke-linejoin="round"/>
<path d="M122.917 6.24995C120.922 7.6572 118.713 8.73351 116.375 9.43745C115.12 7.99477 113.453 6.97223 111.598 6.50813C109.743 6.04404 107.791 6.16078 106.004 6.84256C104.218 7.52435 102.684 8.73829 101.61 10.3202C100.536 11.9021 99.9743 13.7757 100 15.6875V17.7708C96.3388 17.8657 92.711 17.0537 89.4396 15.4071C86.1682 13.7605 83.3548 11.3304 81.25 8.33329C81.25 8.33329 72.9166 27.0833 91.6666 35.4166C87.3761 38.3291 82.2649 39.7894 77.0833 39.5833C95.8333 50 118.75 39.5833 118.75 15.625C118.748 15.0446 118.692 14.4658 118.583 13.8958C120.71 11.7989 122.21 9.15144 122.917 6.24995V6.24995Z" stroke="#09A206" stroke-opacity="0.63" stroke-width="2" stroke-linecap="round" stroke-linejoin="round"/>
<path d="M187.5 4.1665H181.25C178.487 4.1665 175.838 5.26397 173.884 7.21748C171.931 9.17098 170.833 11.8205 170.833 14.5832V20.8332H164.583V29.1665H170.833V45.8332H179.167V29.1665H185.417L187.5 20.8332H179.167V14.5832C179.167 14.0306 179.386 13.5007 179.777 13.11C180.168 12.7193 180.697 12.4998 181.25 12.4998H187.5V4.1665Z" stroke="#09A206" stroke-opacity="0.63" stroke-width="2" stroke-linecap="round" stroke-linejoin="round"/>
</svg>
