<svg width="491" height="509" viewBox="0 0 491 509" fill="none" xmlns="http://www.w3.org/2000/svg">
<ellipse cx="240" cy="253.848" rx="206" ry="220.5" fill="#DBFDDA"/>
<path fill-rule="evenodd" clip-rule="evenodd" d="M145.407 332.626C147.683 350.654 149.958 368.682 152.234 386.71L154.071 401.268C154.303 403.105 154.084 406.728 154.968 408.373C155.28 408.953 156.1 409.229 156.704 409.57C158.78 410.748 160.856 411.926 162.933 413.103C180.496 423.064 198.06 433.025 215.623 442.986C232.479 452.546 249.335 462.106 266.191 471.665C267.935 472.655 270.757 475.236 272.64 474.556C274.429 473.909 276.259 472.315 277.884 471.309C281.003 469.378 284.122 467.447 287.242 465.516C306.118 453.831 324.993 442.145 343.869 430.46C351.656 425.639 359.444 420.818 367.232 415.996C369.362 414.678 371.494 413.359 373.624 412.039C374.739 411.349 374.884 411.374 375.322 410.202C376.962 405.825 377.722 400.81 378.882 396.267C380.161 391.262 381.44 386.256 382.718 381.25C383.289 379.016 383.021 378.728 382.091 376.572C380.251 372.304 378.41 368.037 376.57 363.769C372.485 354.297 368.401 344.826 364.316 335.354C362.664 331.524 358.685 328.829 355.82 326.011L311.344 282.27C310.214 281.158 309.085 280.048 307.955 278.936C307.769 285.614 306.52 292.793 308.352 299.244C311.359 309.83 314.365 320.417 317.372 331.004C318.825 336.121 320.278 341.238 321.731 346.354C322.001 347.305 323.645 351.075 323.206 351.911C322.962 352.375 320.886 352.844 320.436 353.024C318.504 353.801 316.573 354.577 314.64 355.354C309.257 357.517 303.875 359.68 298.492 361.843C293.65 363.789 288.809 365.734 283.968 367.68C282.326 368.34 280.398 369.562 278.664 369.46C277.113 369.369 275.349 368.558 273.848 368.149C271.21 367.432 268.571 366.714 265.932 365.995C260.749 364.585 255.565 363.175 250.382 361.764C244.55 360.178 239.625 355.517 234.638 352.068C226.065 346.139 217.493 340.209 208.921 334.281C206.959 332.923 206.951 332.149 206.169 329.67C204.412 324.101 202.654 318.531 200.897 312.962C199.959 309.988 198.804 307.002 198.096 303.957C196.927 298.932 196.233 293.731 195.307 288.651C195.028 287.118 194.749 285.585 194.47 284.052C190.88 285.591 187.29 287.13 183.699 288.669C183.179 288.892 180.644 289.557 180.418 290.104C180.275 290.449 181.03 292.017 181.138 292.354C184.114 301.667 187.091 310.98 190.068 320.292C191.005 323.222 191.941 326.151 192.877 329.081C190.64 325.367 188.402 321.652 186.164 317.938C184.406 324.184 182.648 330.432 180.89 336.678C176.734 331.613 172.579 326.548 168.423 321.483C166.984 326.548 165.546 331.613 164.107 336.678C159.632 330.432 155.157 324.184 150.682 317.938C150.15 321.197 149.618 324.457 149.085 327.717C148.925 328.701 148.957 331.524 148.337 332.303C147.826 332.944 146.356 332.626 145.407 332.626Z" fill="#09A206" fill-opacity="0.63"/>
<path fill-rule="evenodd" clip-rule="evenodd" d="M428.756 371.595C428.504 380.081 428.679 391.097 424.282 398.559C423.573 399.763 421.169 403.514 420.9 400.214C420.637 396.974 421.392 393.766 420.644 390.489C420.244 388.735 418.899 384.905 416.6 386.489C415.429 387.296 415.12 389.289 414.662 390.548C413.984 392.409 413.224 394.241 412.51 396.088C410.017 402.537 407.433 410.232 401.891 414.5C402.616 408.939 404.593 403.002 403.264 397.381C402.812 395.465 401.439 391.967 399.077 393.09C396.774 394.183 395.282 399.063 394.196 401.236C390.901 407.824 387.532 414.288 383.823 420.63C381.957 423.82 379.942 426.736 377.501 429.464C375.975 431.171 374.072 434.056 371.666 434.31C371.666 429.446 373.181 424.747 374.565 420.166C376.053 415.241 377.409 410.274 378.87 405.339C380.136 401.059 381.176 396.811 382.02 392.422C382.369 390.606 382.646 388.727 384.11 387.554C385.427 386.501 387.507 385.999 388.975 385.225C392.83 383.19 396.795 380.995 400.377 378.466C401.847 377.428 403.113 376.086 404.653 375.155C406.407 374.094 408.045 373.201 409.668 371.908C416.672 366.327 422.985 359.463 427.239 351.292C427.93 354.575 428.845 357.783 428.946 361.167C429.049 364.636 428.859 368.127 428.756 371.595ZM371.117 410.601C369.997 408.603 368.29 409.421 366.786 410.385C364.453 411.879 362.114 413.363 359.768 414.839C354.996 417.843 350.312 421.004 345.649 424.193C336.158 430.683 326.335 435.994 316.329 441.488C306.658 446.797 297.368 453.114 288.307 459.5C286.129 461.035 283.967 462.606 281.875 464.27C280.019 465.748 278.535 467.822 276.581 469.138C274.546 470.507 273.147 469.396 271.201 468.386C268.767 467.123 266.231 466.064 263.742 464.925C253.702 460.327 243.634 455.554 233.867 450.335C224.159 445.148 214.961 439.172 205.659 433.236C201.229 430.409 196.875 427.403 192.505 424.472C187.855 421.354 183.041 419.018 178.163 416.366C176.005 415.192 174.093 413.599 171.876 412.533C169.546 411.412 167.084 410.607 164.997 408.99C164.062 408.265 163.273 407.398 162.203 406.885C161.325 406.464 160.329 406.393 159.462 405.946C157.698 405.036 157.194 403.19 156.852 401.27C154.656 388.943 153.488 376.275 152.215 363.81C151.5 356.801 150.701 349.82 149.713 342.848C149.267 339.704 150.163 337.269 150.634 334.211C151.184 330.64 151.401 326.993 151.769 323.398C153.507 326.798 155.009 330.367 157.22 333.471C158.85 335.757 161.634 339.001 164.635 338.924C169.3 338.805 169.086 330.354 169.274 326.999C171.399 329.003 172.043 332.266 173.807 334.593C175.417 336.717 177.608 339.353 180.081 340.304C185.287 342.308 184.786 332.099 184.5 329.204C184.356 327.751 183.58 325.454 185.422 326.116C187.118 326.726 188.768 329.254 190.194 330.413C192.658 332.418 195.361 334.084 197.889 335.997C201.025 338.372 204.409 340.088 207.607 342.299C209.607 343.683 211.789 343.993 213.969 345.01C217.163 346.501 219.985 348.723 223.025 350.51C229.046 354.046 235.726 357.218 242.312 359.351C244.442 360.041 247.282 361.986 248.898 359.987C249.894 358.757 250.548 356.878 251.393 355.5C252.461 353.754 253.596 352.055 254.775 350.39C258.965 344.473 263.614 338.887 268.778 333.896C274.786 328.091 281.355 322.867 288.381 318.516C291.4 316.647 304.006 308.268 306.777 314.165C304.5 314.015 302.526 314.895 300.579 315.996C300.104 316.265 297.653 318.114 298.227 316.485C297.515 316.626 296.89 317.606 296.351 318.042C295.42 318.796 294.007 319.666 292.928 320.29C291.861 320.907 290.544 321.057 289.572 321.805C289.217 322.078 289.002 322.521 288.663 322.816L287.693 322.824C287.547 323.392 287.402 323.959 287.257 324.527C286.708 322.67 285.926 325.085 285.009 325.87C284.458 326.341 283.586 326.827 282.938 327.132C282.453 327.359 282.378 326.83 281.907 327.232C281.489 327.589 281.222 328.376 280.773 328.824C280.221 329.372 279.514 329.798 278.899 330.266C277.721 331.162 276.474 331.866 275.28 332.716C273.674 333.86 272.831 335.827 271.272 337.023C270.533 337.589 269.386 337.655 268.986 338.018C267.983 338.929 268.313 340.308 266.443 340.369C266.614 340.657 266.716 340.969 266.751 341.306C266.305 341.225 265.909 341.03 265.563 340.72C265.64 342.691 263.806 343.394 262.707 344.607C262.073 345.306 261.283 346.289 260.836 347.131C260.762 347.271 260.62 348.394 260.589 348.41C260.42 348.496 259.386 347.537 259.484 347.617C259.196 349.437 257.528 351.158 256.798 352.844C256.413 353.731 256.023 355.159 255.265 355.783C255.058 355.953 254.424 355.776 253.9 356.366C253.515 356.798 253.072 357.598 252.916 358.172C252.812 358.555 252.937 359.547 252.787 359.777C252.513 360.198 252.086 359.775 251.656 360.086C250.862 360.66 250.842 361.558 249.68 361.676C250.481 363.731 255.316 364.365 257.074 364.95C262.044 366.602 267.258 368.252 271.903 370.783C273.105 371.437 274.242 371.976 274.455 373.484C274.752 375.582 273.739 378.372 273.546 380.491C273.023 386.214 272.916 392.106 273.025 397.854C273.129 403.298 273.296 408.793 273.536 414.23C273.759 419.271 274.721 424.213 275.24 429.219C275.383 430.593 275.288 436.789 277.524 436.477C279.391 436.216 278.212 431.984 278.177 430.771C278.099 428.086 278.634 425.345 278.612 422.636C278.601 421.334 279.14 420.212 279.192 418.966C279.243 417.735 278.664 416.762 278.837 415.485C279.004 414.26 282.432 407.216 279.14 408.041C279.333 407.034 279.501 406.019 279.756 405.026C280.108 405.361 280.392 405.751 280.606 406.197C280.899 404.033 280.801 401.873 280.983 399.708C281.064 398.727 281.441 397.653 281.312 396.664C281.337 396.255 281.287 395.852 281.164 395.458C280.962 395.232 280.711 395.113 280.413 395.101C280.257 394.56 280.216 394.411 280.495 393.879C280.614 393.519 280.851 393.294 281.205 393.205C281.88 393.121 281.957 392.711 281.436 391.976C281.708 390.525 281.743 389.61 281.547 388.162C281.382 386.946 281.989 384.591 281.371 383.508C280.649 382.242 280.29 383.47 280.156 381.716C280.127 381.344 280.104 380.57 280.246 380.2C280.401 379.797 280.866 379.962 280.926 379.819C281.33 378.844 281.357 376.924 279.926 377.091C279.982 376.394 280.039 375.698 280.094 375.001C281.127 376.258 280.766 375.194 281.352 374.496C282.142 373.555 282.914 373.393 284.042 373.02C287.049 372.03 289.946 370.539 292.884 369.329C299.106 366.768 305.443 364.481 311.483 361.454C324.186 355.087 336.637 348.177 349.418 341.977C348.505 340.187 349.073 340.1 349.74 338.42C350.631 339.073 350.444 338.617 351.078 338.577C351.02 338.016 351.185 337.847 351.573 338.07C351.881 338.169 352.197 338.205 352.521 338.175C353.312 338.319 353.958 338.779 354.678 338.953C354.914 339.137 355.173 339.275 355.456 339.368C355.71 339.307 355.927 339.174 356.106 338.969C357.27 339.197 357.663 340.124 357.714 341.465C357.723 341.698 357.046 341.937 357.24 342.251C357.578 342.799 358.488 342.668 359.009 342.738C358.895 343.307 358.781 343.876 358.667 344.445C360.952 343.331 360.356 346.818 361.049 347.963C361.242 348.282 361.672 348.027 361.896 348.397C362.188 348.881 362.1 349.565 362.349 350.046C362.911 351.135 363.474 351.002 364.035 352.249C366.964 358.757 370.861 364.82 373.672 371.468C375.011 374.633 376.218 377.851 377.616 380.987C378.902 383.874 379.637 386.328 378.72 389.48C376.594 396.792 374.321 404.238 371.534 411.301C371.395 411.068 371.256 410.834 371.117 410.601ZM222.813 465.183C222.614 465.542 222.414 465.901 222.215 466.26C221.772 463.568 222.952 464.816 222.813 465.183ZM213.435 460.143C212.796 459.941 213.072 458.838 213.093 458.366C213.497 458.899 213.894 459.441 214.23 460.026C213.965 460.065 213.7 460.104 213.435 460.143ZM187.733 449.794C188.404 449.396 188.887 449.11 189.648 448.66C188.875 450.252 188.875 450.252 187.733 449.794ZM147.298 309.522C146.272 312.181 149.399 328.6 146.488 329.136C146.07 327.695 146.018 323.727 144.289 323.254C142.145 322.666 142.356 326.751 142.063 328.014C137.66 324.778 135.704 318.528 133.601 313.576C130.919 307.263 128.81 300.697 126.795 294.12C125.072 288.496 123.647 282.773 121.906 277.158C120.813 273.632 119.634 270.097 118.898 266.462C118.738 265.673 118.11 263.67 118.644 262.92C119.42 261.828 122.215 263.078 123.115 263.365C128.957 265.222 135.017 266.021 141.018 267.1C147.687 268.298 154.34 269.536 161.049 270.465C162.725 270.697 164.402 270.917 166.08 271.131C167.169 271.27 168.816 271.131 169.85 271.646C171.943 272.689 172.388 276.681 173.165 278.751C176.065 286.476 179.477 293.958 182.53 301.613C185.281 308.509 187.366 315.846 191.319 322.125C188.371 320.744 184.634 313.445 181.339 317.652C179.923 319.461 180.28 321.845 180.393 324.01C180.557 327.141 180.609 330.294 180.609 333.429C177.385 332.545 175.218 328.678 173.526 325.94C171.213 322.199 169.757 318.674 168.734 314.386C168.29 312.529 167.114 312.483 166.069 311.372C165.398 310.658 165.061 309.695 164.098 310.734C162.888 312.04 163.693 315.656 163.902 317.198C164.398 320.867 166.026 326.513 164.443 329.96C162.308 334.612 156.585 322.906 155.915 321.215C155.574 320.355 149.485 303.85 147.298 309.522ZM143.3 229.792C143.66 229.851 144.02 229.909 144.381 229.967C144.09 230.238 143.486 231.188 142.992 230.937C143.095 230.556 143.197 230.174 143.3 229.792ZM162.398 225.463C162.285 225.594 162.172 225.725 162.058 225.856C161.542 225.174 161.725 224.178 161.725 223.389C162.408 223.825 162.575 224.697 162.398 225.463ZM163.941 233.039V235.27C162.51 234.615 162.481 234.277 163.941 233.039ZM165.68 235.876C164.677 235.585 164.557 235.351 164.698 233.722C165.114 234.635 165.388 235.236 165.68 235.876ZM171.454 252.404C171.034 253.546 168.576 250.823 168.666 250.008C168.752 249.231 169.13 248.999 169.65 249.499C169.822 249.664 169.567 250.263 169.677 250.47C170.073 251.222 170.873 251.837 171.454 252.404ZM171.481 259.288C170.866 260.912 169.768 258.355 171.377 258.285C171.482 258.611 171.517 258.946 171.481 259.288ZM170.287 256.728C170.049 256.392 169.817 256.051 169.592 255.705C170.421 255.882 171.079 257.157 171.953 256.306C171.849 257.604 170.977 257.64 170.287 256.728ZM116.706 235.634C115.374 234.098 124.063 233.02 125.111 232.756C132.717 230.84 139.899 228.067 147.012 224.665C150.404 223.042 153.78 221.4 157.093 219.6C158.524 218.824 160.485 218.165 161.68 216.999C162.533 216.167 162.499 215.538 163.608 215.042C164.549 214.622 164.596 215.019 165.027 214.259C165.286 213.803 165.579 212.132 165.427 211.638C165.015 210.289 164.404 211.383 163.547 210.453C162.93 209.783 163.08 207.878 163.248 207.089C163.467 207.464 163.592 207.873 163.626 208.312C164.556 207.828 164.181 206.165 165.198 205.893C166.269 205.606 166.159 206.488 166.438 207.389C167.248 206.133 166.599 205.062 166.161 203.835C168.389 203.395 170.783 202.968 172.991 203.751C174.589 204.316 175.956 205.708 177.642 205.977C179.293 206.24 179.611 205.413 180.828 204.573C181.816 203.892 182.665 204.694 183.174 204.18C182.86 205.917 180.164 205.679 180.496 207.85C180.646 208.827 181.779 209.705 182.295 210.465C182.943 211.42 183.459 212.475 183.9 213.55C185.616 217.733 186.35 222.587 187.07 227.06C188.847 238.101 189.072 249.359 190.744 260.436C191.54 265.712 192.338 270.99 192.752 276.318C192.856 277.65 193.626 280.671 192.996 281.953C192.463 283.035 191.278 283.038 190.237 283.3C188.201 283.811 186.29 284.505 184.337 285.275C182.586 285.964 182.077 286.387 180.953 284.647C179.866 282.963 179.329 280.957 178.551 279.111C177.56 276.759 176.364 274.49 175.215 272.221C177.472 272.221 178.771 270.934 178.711 268.512C178.646 265.828 176.556 265.191 175.695 262.986C174.858 264.135 174.787 264.168 174.19 263.077C173.507 261.829 173.047 259.546 172.629 258.131C172.928 258.468 173.226 258.805 173.525 259.141C174.278 258.046 173.098 256.32 172.704 255.289C172.095 253.696 171.987 251.975 171.41 250.387C171.095 249.52 170.365 248.838 170.186 247.934C170.066 247.328 170.545 246.752 170.431 246.138C170.234 245.068 169.088 243.921 168.732 242.833C168.184 241.159 167.589 239.686 166.909 238.055C165.989 235.848 166.203 233.532 166.034 231.184C165.86 228.748 165.121 226.419 164.861 223.994C164.68 222.319 165.245 220.21 164.045 218.868C163.905 221.098 164.51 221.064 162.526 221.465C160.268 221.921 158.63 223.699 156.494 224.229C156.054 224.338 155.734 222.307 155.905 225.078C154.881 224.279 152.695 225.271 153.511 225.745C152.893 226.443 151.675 225.96 151.472 227.007C149.371 224.849 146.003 232.192 143.501 228.362C143.088 230.958 141.309 232.493 138.92 232.836C137.719 233.008 136.979 233.431 135.913 233.812C135.696 233.888 135.617 234.217 135.361 234.305C134.97 234.44 134.395 234.033 134.113 234.112C133.539 234.274 132.901 235.071 132.1 235.23C131.181 235.412 130.179 235.328 129.259 235.216C128.109 235.075 127.604 234.931 126.478 235.331C125.465 235.691 124.38 236.7 123.441 235.602C121.964 238.3 118.444 237.64 116.706 235.634ZM184.959 203.074C183.842 202.933 184.618 201.918 185.135 201.613C186.541 200.786 186.165 203.227 184.959 203.074ZM123.095 212.757C129.652 202.763 140.869 195.897 150.738 190.12C156.128 186.964 161.63 183.906 167.29 181.323C170.104 180.039 172.951 178.806 175.825 177.678C177.359 177.076 178.912 176.528 180.466 175.983C180.896 175.833 181.677 175.371 182.127 175.416C182.049 175.408 183.245 175.751 183.01 175.859C183.78 175.505 184.146 174.582 185.052 174.213C186.069 173.797 187.365 173.625 188.455 173.588C189.419 173.555 190.254 173.975 191.173 174.008C191.776 174.03 192.29 173.727 192.881 173.682C193.183 173.66 193.156 174.138 193.339 174.166C193.418 174.178 194.223 173.858 194.231 173.864C194.524 174.063 194.784 174.84 195.049 175.143C195.81 176.014 196.926 176.62 197.94 177.078C199.175 177.635 202.185 178.195 200.79 180.257C201.781 180.106 202.242 181.052 201.001 181.292C200.329 181.422 200.042 180.772 199.543 180.328C198.39 179.305 195.59 177.848 193.929 177.914C192.995 177.951 192.273 178.7 191.411 178.972C190.563 179.24 190.143 178.825 189.399 178.891C188.529 178.967 187.969 179.745 187.14 179.883C186.363 180.013 185.931 179.453 185.237 179.492C184.412 179.538 183.614 180.295 182.826 180.549C181.574 180.954 180.654 181.229 179.431 181.899C177.062 183.199 174.415 183.692 171.973 184.81C170.021 185.704 167.807 186.175 166 187.163C163.991 188.262 161.973 189.357 160.006 190.551C158.585 191.413 155.695 191.71 154.128 191.491C154.106 194.539 152.685 192.402 151.254 193.737C151.593 194.053 151.977 194.285 152.406 194.433C150.855 195.087 149.421 195.902 147.919 196.654C146.366 197.432 144.709 197.603 143.688 199.075C142.748 200.431 143.067 199.731 141.664 200.265C141.021 200.51 140.461 201.258 139.998 201.76C139.201 202.623 139.024 203.929 138.569 202.156C138.436 202.372 137.914 203.749 137.812 203.784C137.242 203.145 137.16 203.903 136.841 204.174C137.009 204.763 136.769 205.149 136.122 205.332C135.794 205.589 135.463 205.841 135.127 206.088C133.911 206.979 132.364 207.743 131.507 209.071C130.876 208.677 130.642 207.998 131.026 207.304C129.819 208.479 128.379 209.686 128.053 211.495C127.903 211.342 127.728 211.232 127.529 211.164C127.039 211.513 127.677 212.555 127.988 212.789C129.343 212.233 127.65 212.435 128.56 212.524C128.82 212.55 129.086 212.755 129.372 212.758C130.212 212.77 131.001 212.728 131.833 212.592C133.669 212.293 135.473 211.737 137.25 211.179C139.185 210.571 141.121 209.964 143.013 209.218C144.571 208.605 146.104 207.92 147.636 207.239C148.248 206.966 148.859 206.69 149.472 206.419C150.636 205.906 151.249 205.062 151.087 206.508C152.014 206.345 152.817 204.961 153.528 204.396C154.53 203.603 155.655 203.011 156.842 202.605C157.322 202.441 157.675 202.233 158.172 202.231C158.415 202.231 158.561 202.956 158.715 202.916C159.779 202.644 159.294 202.021 159.772 201.123C160.819 199.162 163.638 198.077 165.37 196.962C166.469 196.255 167.249 195.303 168.264 194.52C168.738 194.153 169.083 193.991 169.58 193.836C169.961 193.717 170.428 194.641 170.675 193.713C169.789 193.33 169.059 192.859 168.207 192.58C167.604 192.382 168.327 191.704 167.372 192.108C166.989 192.27 166.857 193.054 166.716 193.382C165.649 192.375 162.649 193.418 161.383 193.84C161.296 193.869 160.905 193.651 160.721 193.664C159.99 193.716 159.482 194.755 159.001 195.202C157.722 196.392 156.335 196.889 154.76 197.569C155.179 195.15 158.259 194.159 160.057 193.233C162.684 191.879 165.131 190.15 168.008 189.422C169.924 188.936 172.463 188.545 173.29 190.898C173.785 192.309 173.848 195.814 172.172 196.465C171.995 195.806 172.562 195.243 172.732 194.672C171.064 195.345 170.79 197.461 169.523 198.566C168.811 199.187 168.556 199.386 168.212 199.985C167.87 200.581 167.706 201.137 166.905 201.77C165.595 198.832 165.817 202.857 165.153 203.362C165.42 203.159 164.07 203.752 164.232 203.689C164.169 203.713 163.581 202.707 163.2 202.729C162.506 202.767 162.64 203.574 162.305 203.98C161.172 205.355 159.709 206.256 157.885 206.04C157.842 207.018 158.128 208.187 156.864 208.276L156.698 206.107C156.01 206.843 155.104 207.541 154.544 208.393C153.907 209.362 153.975 209.958 152.917 210.604C151.813 211.279 149.462 212.61 148.147 212.725C148.473 212.237 148.415 211.797 147.976 211.405C147.315 212.125 146.338 212.196 145.634 212.847C148.078 213.925 143.757 213.869 143.209 213.991C142.842 214.073 142.522 214.426 142.15 214.506C141.657 214.612 141.593 214.064 141.168 214.237C140.547 214.492 140.799 215.209 140.149 215.57C139.682 215.829 138.89 215.826 138.363 216.072C137.107 216.66 134.432 217.961 133.583 216.383C133.153 219.09 128.761 217.442 127.135 217.26C124.908 217.01 121.029 215.906 123.095 212.757ZM132.448 185.052C132.763 184.768 133.078 184.788 133.394 185.115C132.955 182.664 136.352 181.474 137.834 180.432C139.8 179.051 142.114 176.37 144.686 176.582C144.248 176.925 143.81 177.269 143.372 177.612C143.997 177.698 144.623 177.783 145.247 177.869C144.895 178.416 144.542 178.963 144.189 179.509C143.611 176.148 140.599 180.391 139.728 181.01C138.85 181.632 137.974 182.096 137.194 182.856C136.421 183.608 135.723 184.962 134.446 184.285C134.329 186.205 132.868 185.684 131.858 186.748C131.815 186.081 132.177 185.609 132.448 185.052ZM145.794 175.469C148.904 174.239 151.611 171.964 154.541 170.339C157.34 168.787 160.195 167.393 163.04 165.945C164.484 165.21 167.128 163.309 168.778 164.278C171.004 165.586 167.939 166.008 167.143 166.46C166.849 164.446 165.817 166.271 166.433 167.391C164.735 166.616 161.03 169.648 159.409 170.485C159.042 170.674 159.206 170.783 158.789 171.006C158.687 171.061 157.623 171.317 157.319 171.425C155.793 171.964 154.787 171.536 154.13 173.481C153.992 173.023 153.855 172.565 153.717 172.106C152.762 174.372 149.859 175.364 148.002 176.704C147.524 177.049 146.157 178.389 145.55 178.112C144.705 177.726 145.044 175.765 145.794 175.469ZM201.888 182.3C203.201 182.392 201.935 183.038 202.296 183.466C202.255 183.418 203.087 184.167 202.978 183.961C203.125 184.238 203.477 184.228 203.657 184.79C204.278 186.723 201.567 188.721 200.652 189.818C198.874 191.952 197.847 194.654 195.994 196.72C195.157 197.653 194.325 198.297 193.165 198.645C192.353 198.889 191.495 198.628 190.748 199.452C190.148 200.116 190.284 200.494 189.62 200.847C188.45 201.469 187.934 200.923 186.796 202.269C185.816 199.455 188.631 199.46 190.1 197.888C192.127 195.717 194.348 193.528 196.25 191.206C197.938 189.143 198.615 187.334 199.417 184.828C199.669 184.038 199.945 182.344 200.641 181.848C201.726 181.076 201.075 182.243 201.888 182.3ZM208.344 255.379C211.788 251.311 216.059 247.658 220.689 245.208C222.344 244.331 224.699 243.182 226.415 244.53C228.097 245.852 227.735 248.49 227.057 250.284C226.407 250.014 227.02 247.493 226.683 246.87C225.947 245.51 224.36 246.232 223.281 246.688C222.016 247.222 220.887 247.812 219.885 248.78C219.479 249.173 218.7 249.525 218.44 249.795C218.049 249.623 217.818 249.748 217.749 250.17C217.83 250.428 217.82 250.682 217.72 250.933C217.663 251.012 217.154 250.686 217.082 250.751C216.752 251.05 216.443 251.401 216.118 251.678C215.467 252.234 214.912 252.498 214.313 253.274C213.154 254.773 211.622 255.652 210.458 257.081C210.195 257.404 209.88 258.232 209.821 258.305C209.233 259.03 208.361 259.604 207.697 260.372C206.55 261.699 205.325 262.589 204.001 263.727C203.431 264.216 202.765 264.743 202.386 265.424C202.214 265.734 202.116 267.436 202.11 267.443C200.812 268.947 201.064 265.925 201.162 265.546C202.216 261.469 205.781 258.408 208.344 255.379ZM201.257 282.947C201.419 283.587 201.551 284.117 201.715 284.766C200.686 283.875 200.686 283.875 201.257 282.947ZM200.145 285.044C199.767 285.447 199.386 285.847 199.003 286.244C198.161 285.304 200.299 284.883 200.145 285.044ZM199.61 268.855C199.208 270.576 197.733 272.662 196.72 274.021C196.831 273.871 195.855 274.172 195.743 274.241C195.382 274.462 196.247 275.893 194.996 275.253C194.552 275.519 195.426 276.6 194.823 277.083C193.079 272.887 197.84 269.251 199.683 266.136C200.584 267.01 199.837 267.89 199.61 268.855ZM188.286 291.544C189.557 291.889 190.219 291.672 191.077 290.353C191.593 289.561 191.781 288.158 192.961 289.343L193.169 287.819C194.854 288.549 194.712 291.187 195.448 292.648C195.807 290.995 196.655 286.375 199.252 287.116C202.168 287.948 197.315 293.245 196.864 294.543C195.873 292.918 196.263 294.429 195.507 294.658C194.858 294.855 193.845 294.351 193.056 294.396C190.658 294.534 188.551 295.674 186.36 296.639C185.805 295.059 185.251 293.479 184.696 291.899C185.986 292.004 188.653 288.377 189.032 291.013C188.075 290.838 187.806 290.882 187.34 291.802C187.637 291.642 187.953 291.556 188.286 291.544ZM193.67 312.164C193.666 312.151 196.151 312.314 196.372 312.228C198.073 311.572 197.444 309.535 197.792 308.095C198.493 308.776 198.121 310.018 198.337 310.899C198.591 311.934 199.326 312.817 199.394 313.924C199.549 316.425 197.605 315.87 196.132 316.68C194.874 317.372 194.734 318.242 193.671 316.377C193.383 315.873 192.765 314.558 192.828 313.913C192.89 313.274 193.849 312.743 193.67 312.164ZM195.672 322.989L194.985 322.176C197.033 322.838 195.825 321.843 196.296 320.482C197.867 321.587 199.149 322.723 200.392 320.51L202.541 329.663C201.098 330.022 199.236 327.667 198.247 326.858C197.675 326.391 194.503 324.59 196.408 324.065C196.162 323.707 195.917 323.348 195.672 322.989ZM209.695 294.249C208.502 295.447 207.301 296.117 206.003 297.059C204.864 297.886 205.256 298.834 204.269 299.756C203.613 300.369 202.076 300.993 201.267 301.461C199.824 302.293 198.532 302.452 197.048 301.52C197.451 304.954 195.225 305.223 192.453 305.904C191.131 306.228 190.348 306.724 189.395 305.445C188.743 304.57 188.487 302.985 189.299 302.184C190.588 300.912 194.023 301.351 195.678 300.551C196.933 299.944 198.212 296.525 199.76 297.769C198.961 296.424 199.892 296.062 200.587 295.103C201.348 294.052 201.815 292.824 202.602 291.781C204.098 289.8 206.395 287.807 208.52 286.612C210.389 285.561 211.371 286.305 211.651 288.512C211.792 289.622 211.787 291.275 211.198 292.26C211.011 292.574 210.392 292.577 210.204 292.872C209.878 293.387 210.177 293.764 209.695 294.249ZM231.633 267.61C233.125 268.83 232.979 271.393 233.214 273.138C233.546 275.598 233.305 277.979 233.27 280.484C233.232 283.11 232.013 284.82 231.439 287.28C230.801 290.018 229.978 291.467 228.547 293.764C230.099 294.022 227.79 298.917 227.409 299.551C226.996 300.238 223.663 303.408 225.092 303.408C224.303 304.506 223.445 305.633 222.66 306.701C222.35 307.121 221.808 307.286 221.564 307.583C221.068 308.187 221.038 308.724 220.683 309.428C220.143 310.497 219.966 310.212 219.257 310.987C218.767 311.522 218.446 312.228 217.965 312.742C216.415 314.394 216.218 313.04 215.351 311.768C215.218 312.108 214.982 312.322 214.643 312.409C214.372 310.968 216.24 309.513 217.026 308.638C218.312 307.203 219.488 305.623 220.625 304.054C223.061 300.693 225.25 297.122 226.977 293.297C228.814 289.226 230.282 284.821 231.044 280.38C231.626 276.995 232.178 271.188 227.896 270.327C224.782 269.701 221.349 271.7 218.781 273.318C217.217 274.304 215.644 275.284 214.153 276.392C212.536 277.595 211.137 279.297 209.382 280.262C210.342 279.734 207.173 281.322 207.658 280.875C207.431 281.084 207.627 281.722 207.477 282.01C207.281 282.384 206.601 282.754 206.296 282.996C205.491 283.635 204.204 284.289 203.838 285.344C198.728 281.494 208.889 274.658 211.494 272.917C216.66 269.464 225.65 262.718 231.633 267.61ZM245.415 230.162C245.366 227.39 247.504 223.604 248.948 221.343C249.654 220.237 250.782 220.281 251.196 218.975C251.435 218.224 251.122 217.436 251.193 216.681C251.289 215.66 251.708 214.842 252.191 213.964C256.561 206.034 261.87 199.015 267.524 192.096C270.312 188.685 272.956 185.143 275.963 181.939C277.219 180.601 280.595 175.79 282.527 176.271C283.549 176.526 284.144 178.174 284.606 179.016C285.37 180.407 286.209 181.71 287.137 182.99C289.586 186.368 292.41 189.333 295.746 191.727C297.829 193.223 299.934 194.678 301.97 196.245C303.647 197.535 306.182 199.01 307.38 200.822C308.577 202.633 306.819 204.168 305.857 205.672C304.363 208.011 302.989 210.436 301.489 212.773C300.893 212.32 301.047 211.4 300.638 210.82C300.275 210.306 299.763 210.097 299.262 209.779C298.303 209.172 297.361 208.429 296.495 209.447C294.978 211.228 297.063 215.437 299.311 214.975C299.576 216.733 295.087 219.628 293.962 220.595C290.51 223.562 286.949 226.142 282.389 226.41C280.543 226.519 278.623 226.371 276.869 225.719C276.029 225.406 275.1 224.977 274.456 224.296C273.685 223.48 273.489 222.267 272.741 221.459C272.092 220.759 271.201 220.651 270.553 219.948C269.903 219.244 269.583 218.133 269.319 217.222C268.804 215.441 268.707 213.564 268.212 211.779C267.915 210.706 267.67 209.271 266.699 210.302C265.289 211.801 265.997 216.512 266.358 218.307C266.875 220.868 268.085 222.932 269.354 225.136C270.729 227.526 271.236 229.743 271.483 232.508C271.944 237.685 273.351 242.653 275.539 247.311C276.46 249.272 277.563 251.116 278.558 253.033C279.022 253.927 280.063 256.977 281.327 256.961C283.346 256.934 280.47 250.716 280.071 249.672C277.86 243.89 275.748 237.813 275.274 231.553C278.444 232.415 281.899 233.234 285.182 232.687C283.063 237.692 285.276 242.676 285.005 247.828C284.87 250.412 284.772 252.796 284.822 255.372C284.867 257.631 283.901 259.889 283.067 261.932C281.408 265.988 279.321 270.992 276.242 274.1C273.668 276.698 270.224 276.901 266.86 276.303C259.208 274.941 254.181 268.728 250.97 261.671C248.907 257.138 247.329 252.299 246.35 247.375C245.217 241.678 245.516 235.941 245.415 230.162ZM255.352 191.763C248.212 186.305 258.588 180.108 263.87 180.952C265.109 181.149 267.388 181.69 267.272 183.398C267.177 184.794 264.973 186.35 264.127 187.212C261.713 189.67 259.257 194.747 255.352 191.763ZM307.298 313.03C307.053 312.798 305.054 313.368 305.846 312.119C306.504 311.081 308.328 312.381 308.99 312.648C308.444 313.047 307.969 313.664 307.298 313.03ZM277.565 379.038C276.951 379.118 276.309 377.37 278.522 378.676C278.203 378.797 277.884 378.918 277.565 379.038ZM277.502 407.535C277.578 408.319 277.805 408.835 277.278 409.405C276.832 408.825 276.775 408.007 277.502 407.535ZM278.4 419.309C278.334 419.736 278.269 420.162 278.205 420.588C277.694 420.315 277.184 420.042 276.672 419.769C277.248 419.616 277.824 419.463 278.4 419.309ZM279.025 409.381C279.786 409.682 279.432 408.72 279.985 408.584C280.183 409.586 279.939 410.443 279.395 411.27C279.343 411.074 279.064 409.395 279.025 409.381ZM298.485 338.33C297.416 338.186 297.255 339.378 296.458 339.841C295.944 340.14 294.379 339.915 294.087 340.487C294.473 340.605 294.859 340.723 295.244 340.84C294.361 341.343 293.479 341.846 292.596 342.348C294.719 342.348 296.932 341.277 299.04 341.591C299.932 341.725 300.585 342.043 301.144 342.809C301.484 343.274 301.782 344.022 301.837 344.591C301.896 345.207 301.441 345.632 301.522 345.926C302.472 345.953 302.36 347.6 302.146 348.271C301.684 349.726 299.846 352.005 298.199 351.082C298.888 352.115 298.712 352.705 297.693 353.304C297.786 352.963 297.854 352.365 297.333 352.425C297.2 352.997 297.251 353.905 296.808 354.336C296.313 354.819 295.871 354.255 295.397 354.569C294.836 354.941 295.004 355.527 294.563 355.931C293.979 356.465 293.895 356.085 293.197 356.189C292.14 356.347 292.815 355.653 291.968 356.558C291.675 356.87 291.724 357.682 291.25 358.139C290.338 359.015 287.904 359.929 287.03 358.805C284.93 362.321 278.634 363.165 275.703 360.389C271.029 355.962 279.744 346.957 282.622 344.104C285.51 341.24 288.717 338.766 291.963 336.378C293.807 335.022 295.7 333.791 297.632 332.582C298.824 331.836 300.321 330.474 301.786 330.605C303.1 330.722 304.222 331.799 305.606 332.012C306.606 332.166 308.549 332.421 307.287 333.854C306.697 334.524 304.379 335.606 303.59 335.77C303.126 335.865 302.637 335.682 302.178 335.781C301.4 335.95 300.866 336.643 300.02 336.555C300.288 337.882 299.799 338.506 298.485 338.33ZM312.317 289.082C312.318 290.12 310.525 289.861 310.15 289.508C309.534 288.928 309.512 287.194 309.283 286.406C310.326 286.683 312.316 287.697 312.317 289.082ZM297.871 254.843C301.638 251.572 305.599 248.574 309.786 245.933C311.285 244.987 313.402 243.08 315.264 243.318C316.046 243.418 317.66 244.366 317.072 245.411C316.962 245.606 316.093 245.685 315.824 245.826C315.52 245.987 315.281 246.43 314.999 246.649C313.042 248.165 310.692 249.096 308.729 250.648C307.116 251.923 305.612 253.35 303.876 254.444C302.21 255.493 300.47 256.157 298.888 257.319C298.919 257.295 296.831 258.089 297.241 258.233C295.408 257.585 297.344 255.301 297.871 254.843ZM322.986 253.625C325.224 252.683 327.413 251.539 329.756 250.906C330.925 250.59 332.125 250.353 333.336 250.495C333.541 250.115 333.815 250.031 334.157 250.243C334.424 250.676 334.776 251.009 335.214 251.242C335.881 251.784 338.339 252.492 337.848 253.689C337.523 254.481 335.059 254.547 334.383 254.724C332.344 255.261 330.444 256.467 328.344 256.764C328.147 256.791 327.503 256.539 327.496 256.541C326.677 256.73 325.995 257.628 325.291 258.058C323.776 258.985 321.599 259.14 320.511 260.739C324.034 263.262 327.091 260.76 330.189 258.855C332.044 257.714 334.036 256.891 336.064 256.16C337.124 255.778 338.193 255.381 339.267 255.045C339.711 254.874 340.168 254.751 340.637 254.676C341.074 254.584 341.386 254.752 341.574 255.179C342.873 255.134 342.984 254.273 343.765 255.878C344.867 258.141 343.181 258.026 341.597 258.304C339.4 258.689 337.166 259.556 335.001 260.131C334.502 260.264 330.123 261.336 330.118 261.374C329.92 262.834 342.485 261.482 343.564 261.263C345.468 260.876 347.509 259.778 349.48 260.043C350.993 260.246 354.44 262.591 352.027 264.149C351.551 261.746 349.92 263.731 349.069 264.542C347.934 265.621 346.309 265.517 344.753 265.94C342.625 266.517 337.177 268.684 335.666 265.922C336.144 268.343 327.46 267.113 326.266 267.033C325.103 266.954 323.6 267.215 322.475 266.865C321.742 266.636 321.334 266.132 320.643 266.019C320.474 266.212 320.271 266.343 320.035 266.412C319.685 266.225 319.369 265.987 319.087 265.699C316.762 264.57 313.164 263.946 314.456 260.349C315.675 256.957 320.03 254.87 322.986 253.625ZM344.783 255.721C344.841 255.51 344.899 255.299 344.957 255.087C344.964 255.735 346.427 256.011 346.258 256.851C345.883 258.709 344.196 255.917 344.051 255.612C344.295 255.649 344.539 255.685 344.783 255.721ZM353.712 258.809C353.882 259.57 355.827 261.191 355.345 261.565C354.578 260.464 352.459 260.964 353.712 258.809ZM320.907 328.272C321.619 326.78 323.772 329.32 323.544 326.773C324.715 326.885 323.984 327.826 325.387 327.413C325.912 327.258 326.267 326.642 326.908 326.5C327.079 326.462 327.817 326.524 328.071 326.516C328.915 326.489 332.22 326.39 329.945 325.221C331.219 324.332 331.375 324.783 332.525 325.598C332.23 323.913 333.921 324.869 334.708 325.08C334.147 324.119 335.54 323.097 335.992 322.447C335.83 323.448 335.916 324.568 337.286 323.928C337.627 323.769 337.551 323.062 337.822 322.946C338.317 322.735 338.595 323.119 338.772 323.098C338.948 323.077 339.316 323.181 339.684 323.034C340.162 322.844 339.931 322.167 340.537 322.066C340.932 322.001 341.22 322.613 341.702 322.619C341.95 322.621 342.362 322.356 342.55 322.37C342.583 322.372 342.819 321.773 343.108 321.758C343.531 321.736 343.703 322.933 343.857 323.166C344.598 324.275 345.582 324.998 346.718 325.59C344.664 327.579 340.52 327.369 337.937 328.039C336.538 328.403 335.344 328.927 334.064 329.603C333.755 329.815 333.489 330.075 333.266 330.384C333.085 330.257 332.903 330.13 332.722 330.002C332.021 330.048 331.357 329.681 330.567 329.822C328.128 330.257 326.218 332.187 323.739 332.617C322.626 332.811 321.71 333.081 320.985 332.06C320.348 331.166 320.453 329.223 320.907 328.272ZM317.563 316.382C318.115 316.876 317.45 318.484 318.521 318.309C319.28 318.185 319.129 316.941 319.725 316.677C320.509 316.331 320.981 317.152 321.718 317.076C323.091 316.933 323.012 315.667 321.852 315.111C323.058 314.774 323.445 316.281 324.512 316.267C325.915 316.249 325.58 314.501 326.774 314.211C327.291 314.086 327.118 314.888 327.453 314.987C328.124 315.187 328.592 314.845 329.186 314.544C329.717 314.275 330.095 313.755 330.676 313.579C330.94 313.498 331.611 313.646 331.805 313.496C332.196 313.195 332.546 312.023 332.93 311.868C332.852 311.9 334.113 312.567 334.294 312.63C334.183 313.125 333.926 313.184 333.523 312.807C333.523 313.924 336.462 314.272 335.859 312.892C337.448 313.586 336.265 313.944 336.106 314.914C336.043 315.304 335.828 315.293 335.892 315.706C335.921 315.896 336.754 315.732 336.743 315.991C336.673 317.658 331.644 318.17 330.691 318.317C328.719 318.622 326.852 319.134 324.95 319.764C323.534 320.234 321.094 321.579 319.587 321.495C317.42 321.375 317.138 318.389 317.563 316.382ZM312.721 299.373C312.193 297.518 313.888 293.688 316.095 294.167C316.638 294.284 316.772 294.759 317.193 294.97C317.781 295.265 318.737 295.11 319.247 295.414C320.389 296.098 319.813 297.839 320.958 298.468C319.151 298.931 313.561 302.32 312.721 299.373ZM314.813 306.577C315.592 306.135 316.854 306.078 317.385 305.228C317.65 305.421 318.15 306.596 318.624 306.416C318.846 306.333 319.074 305.696 319.059 305.697C319.481 305.684 319.565 305.08 320.211 305.147C320.804 305.21 321.467 305.963 321.995 306.244C321.904 304.378 322.357 304.199 323.789 303.2C324.103 302.982 324.366 302.16 324.655 301.828C324.378 303.786 325.077 303.797 326.557 304.091C328.413 304.46 329.569 305.512 330.312 307.406C328.731 307.08 326.691 307.472 326.068 309.268C324.806 306.832 320.219 310.193 318.735 310.882C317.634 311.393 316.352 312.08 315.429 310.889C314.779 310.05 315.151 309.041 315.165 308.296C315.169 308.062 315.398 308.048 315.377 307.7C315.35 307.255 314.802 307.077 314.813 306.577ZM331.696 344.88C331.279 345.047 329.129 345.141 329.115 344.389C329.104 343.724 332.909 344.394 331.696 344.88ZM328.204 342.447C326.578 343.506 324.758 339.774 324.16 338.699C325.866 338.93 326.699 337.422 327.704 336.277C328.66 338.49 330.112 337.32 331.64 336.581C333.441 335.709 335.414 335.703 337.259 335.003C337.835 334.785 338.366 334.46 338.928 334.211C339.38 334.032 339.832 333.848 340.281 333.66C340.6 333.357 340.713 332.982 340.62 332.539C340.469 332.166 340.572 331.93 340.93 331.833C341.355 331.967 341.788 332.045 342.231 332.065C342.942 331.917 343.964 331.208 343.106 330.444C344.025 329.562 344.946 330.439 345.832 330.826C345.622 330.192 345.412 329.558 345.202 328.925C345.641 329.122 346.945 331.046 347.078 331.036C347.921 330.969 347.833 329.774 348.317 329.292C348.597 329.656 348.677 332.371 349.776 331.457C350.246 331.066 349.234 329.733 348.985 329.43C350.242 329.73 351.339 331.315 351.679 332.546C351.082 332.637 350.531 332.511 350.024 332.165C349.7 333.879 352.703 333.185 353.189 334.08C354.142 335.833 347.948 337.051 347.141 337.214C345.526 337.539 343.62 337.66 342.139 338.416C340.721 339.14 340.385 339.347 338.728 339.483C336.837 339.638 334.991 340.296 333.161 340.809C331.573 341.254 329.613 341.53 328.204 342.447ZM362.776 279.695C364.269 279.127 369.3 276.181 370.581 277.491C370.446 277.352 371.505 279.663 371.493 279.518C371.585 280.719 371.557 281.203 370.156 281.779C369.153 282.191 368.279 281.315 367.377 281.663C366.386 282.046 367.079 282.722 366.569 283.195C366.01 283.713 364.932 283.937 364.236 284.164C362.533 284.719 360.817 285.184 359.122 285.783C355.673 287.001 352.02 288.134 348.476 288.996C345.827 289.64 341.332 291.24 338.891 289.35C338.653 290.424 338.07 290.277 337.262 290.434C336.628 290.556 335.481 290.888 334.917 290.905C333.979 290.934 331.37 290.674 331.729 289.284C331.63 289.667 333.758 288.356 333.39 288.275C334.294 288.476 334.001 287.995 334.741 287.728C335.708 287.379 336.719 287.397 337.706 287.028C340.195 286.096 342.283 284.886 344.91 284.302C350.911 282.968 356.986 281.896 362.776 279.695ZM122.216 423.337C121.73 423.351 121.352 421.892 122.831 422.933C122.626 423.068 122.421 423.202 122.216 423.337ZM110.531 421.449C109.87 421.628 109.606 421.238 109.741 420.28C110.663 419.895 110.926 420.284 110.531 421.449ZM101.51 419.494C101.34 418.64 101.94 418.448 102.483 418.064C102.428 419.196 102.428 419.196 101.51 419.494ZM78.8115 412.467C77.8971 412.255 76.6787 411.31 76.4691 412.896C76.3162 412.529 75.5356 410.801 75.8707 410.402C76.0457 410.193 76.7084 411.16 76.6379 411.064C77.4382 409.354 78.8177 411.418 79.5887 412.028C79.3298 412.175 79.0704 412.321 78.8115 412.467ZM316.551 223.49C316.867 222.785 317.239 222.561 317.667 222.819C316.995 224.468 314.718 225.362 316.551 223.49ZM332.37 208.009C332.934 209.126 332.085 209.598 331.48 210.526C331.834 209.525 332.08 208.831 332.37 208.009ZM401.119 317.032C403.153 317.032 407.486 315.898 408.712 318.354C409.524 316.685 410.447 319.814 411.151 320.316C411.23 320.373 411.737 319.963 411.973 320.114C412.329 320.342 412.636 320.961 412.84 321.329C413.454 322.44 413.718 323.76 414.059 324.981C410.506 324.981 406.863 324.108 403.314 323.79C400.984 323.581 398.699 323.575 396.366 323.708C395.903 323.734 394.982 323.573 394.585 323.665C394.183 323.759 393.452 324.625 393.008 324.486C393.698 325.854 402.535 329.166 403.209 327.651C402.41 327.141 400.636 326.749 400.638 325.515C400.639 324.132 402.302 324.135 403.183 324.176C405.111 324.265 408.339 324.942 409.129 327.06C409.467 327.967 409.571 330.253 409.199 331.129C408.959 331.695 408.553 332.375 407.908 332.49C407.644 332.537 407.263 332.166 407.223 332.175C405.9 332.471 403.453 333.593 402.01 332.011C400.97 333.433 395.961 331.88 394.427 331.344C391.744 330.406 388.051 329.118 386.422 326.474C384.435 323.251 388.473 320.528 390.792 319.218C393.961 317.428 397.581 317.034 401.119 317.032ZM414.655 324.483C415.279 324.669 415.903 324.855 416.526 325.041C416.359 326.196 413.899 325.282 414.655 324.483ZM433.504 366.461C433.696 361.834 432.429 357.759 431.698 353.284C431.517 352.175 431.702 350.236 430.904 349.323C430.142 348.451 428.441 349.16 428.374 347.618C427.623 348.547 427.699 348.741 426.774 347.673C426.943 348.131 426.967 348.596 426.848 349.071C426.274 348.723 424.194 347.569 424.369 349.147C422.658 348.747 423.154 347.617 422.178 346.755C422.039 346.632 421.482 347.067 421.265 346.882C420.873 346.546 420.679 346.241 420.348 345.809C419.927 346.346 419.355 346.733 418.841 347.158C418.542 346.471 417.961 345.966 417.262 345.799C417.915 347.244 419.531 349.115 417.315 349.937C415.992 350.427 413.825 349.826 412.424 349.94C407.231 350.366 401.543 349.17 396.523 347.863C391.365 346.521 386.149 344.626 381.51 341.856C380.521 341.266 379.899 340.567 379.047 339.834C378.219 339.122 377.618 339.01 376.623 338.554C374.832 337.735 373.194 336.42 371.832 334.956C368.902 331.806 366.181 327.686 366.996 323.074C367.81 318.478 370.801 314.886 374.001 311.859C377.781 308.284 382.049 305.299 386.578 302.892C388.604 301.817 393.784 297.776 395.785 300.141C397.064 301.651 396.345 303.578 394.597 303.914C394.166 303.997 393.716 303.692 393.28 303.901C392.652 304.203 392.873 304.559 392.614 304.811C392.163 305.248 391.685 305.93 391.012 306.309C388.664 307.631 386.394 308.679 384.15 310.29C383.115 311.032 382.119 311.351 381.207 311.999C380.3 312.643 380.094 313.709 378.874 313.051C379.308 314.925 376.7 316.932 375.678 318.08C374.094 319.858 372.195 322.127 372.934 324.758C374.381 329.907 380.916 333.817 385.099 336.081C390.319 338.905 396.075 341.154 401.887 342.084C404.776 342.547 407.763 342.832 410.674 343.126C412.94 343.354 416.419 342.518 418.049 344.674C418.1 342.16 425.534 342.382 427.116 342.06C423.944 330.605 417.715 320.421 411.055 310.905C407.787 306.234 404.578 301.431 400.852 297.149C396.774 292.461 392.114 288.272 387.687 283.958C379.003 275.498 369.182 267.947 359.189 261.296C349.218 254.66 338.892 248.129 327.969 243.398C315.493 237.994 302.358 234.44 289.209 231.413C290.993 229.012 293.894 227.841 296.178 226.085C296.978 225.47 298.059 223.994 299.097 223.792C300.222 223.573 301.108 224.852 301.909 225.494C304.207 227.335 305.796 226.553 308.429 226.442C310.004 226.376 313.734 227.302 314.398 225.052C315.281 226.294 314 227.29 313.345 228.2C313.822 228.903 314.207 228.174 314.678 228.064C314.823 227.937 314.968 227.809 315.113 227.682C315.347 227.325 315.558 227.323 315.746 227.675C316.027 228.122 316.31 228.023 316.595 227.378C316.673 227.327 316.75 227.275 316.829 227.223C317.169 227.031 317.497 226.729 317.814 226.49C320.206 224.684 322.338 223.146 324.978 221.816C327.196 220.7 326.004 218.564 327.466 217.055C327.796 216.714 328.353 216.885 328.707 216.596C329.053 216.312 329.105 215.989 329.358 215.685C329.966 214.953 329.243 214.104 330.792 215L330.233 211.677C333.272 214.791 333.26 205.829 333.675 204.503C333.62 204.679 333.948 203.322 333.947 203.333C334.037 200.644 334.384 198.695 331.403 198.539C332.531 197.789 332.877 199.254 333.398 197.737C333.659 196.978 332.844 195.672 334.143 196.162C334.416 194.547 334.146 193.24 333.805 191.671C333.456 190.065 333.662 188.993 333.677 187.387C333.695 185.565 332.888 183.734 332.629 181.94C332.427 180.535 332.635 178.319 330.916 178.835C330.674 178.435 331.524 177.206 331.489 176.598C331.435 175.654 330.465 174.695 330.191 173.788C329.786 174.229 329.217 174.376 328.667 174.177C329.183 172.945 328.698 172.531 328.204 171.469C327.921 170.86 328.092 170.189 327.485 169.753C327.138 169.502 326.545 169.924 326.273 169.631C325.689 169.003 325.904 168.169 325.503 167.342C324.999 166.304 323.847 165.511 323.054 164.732C318.594 160.353 313.751 157.007 307.818 155.296C301.834 153.57 294.857 152.951 288.892 154.942C286.508 155.738 284.392 155.657 282.246 157.143C281.55 157.625 281.476 157.496 281.122 158.299C281.041 158.487 281.781 158.986 281.328 159.292C280.835 159.625 280.291 158.948 280.039 158.387C276.935 160.76 274.027 163.924 272.259 167.552C270.502 171.158 270.341 175.393 269.67 179.311C266.576 175.577 262.391 173.787 257.841 175.582C253.875 177.146 250.802 180.584 250.026 185.039C249.553 187.754 250.07 190.504 251.237 192.954C251.742 194.013 252.354 195.185 253.282 195.897C254.016 196.46 255.273 196.381 255.619 197.398C256.149 198.954 253.089 202.316 252.294 203.678C250.857 206.144 249.522 208.69 248.505 211.383C244.861 205.945 241.372 200.005 237.228 194.991C233.316 190.258 228.654 186.013 224.081 182.013C214.59 173.71 204.721 165.91 194.104 159.295C184.218 153.136 172.277 149.717 160.756 150.926C149.499 152.107 140.88 159.628 133.628 168.302C119.683 184.98 111.143 208.751 110.308 230.952C110.058 237.621 110.538 244.203 112.098 250.672C112.841 253.752 112.733 256.781 113.164 259.901C113.651 263.42 114.494 266.927 115.308 270.374C118.412 283.506 122.366 296.628 126.802 309.326C129.109 315.929 131.9 322.383 135.676 328.206C137.42 330.895 139.68 332.999 141.556 335.553C143.377 338.03 143.858 341.07 144.258 344.109C145.218 351.396 145.855 358.714 146.432 366.044C146.677 369.151 146.964 372.23 147.353 375.314C147.692 378.004 146.838 377.872 144.697 378.785C145.131 376.368 134.898 378.013 133.931 378.178C132.88 378.357 131.767 378.359 130.938 378.502C130.013 378.661 129.106 378.892 128.04 378.859C126.473 378.812 123.538 378.389 122.939 380.503C122.527 378.052 119.807 380.731 121.82 380.277C119.753 380.521 117.645 380.115 115.554 380.32C113.157 380.555 110.74 380.779 108.361 381.16C106.704 381.425 105.123 382.099 103.464 382.295C101.34 382.545 99.1237 382.522 96.9794 382.722C89.0702 383.459 80.8723 385.281 73.1841 387.368C71.4426 387.84 69.4417 388.176 67.7779 388.935C67.3324 389.138 66.9316 389.591 66.5048 389.766C65.7894 390.057 65.8872 389.856 65.2519 389.989C61.4452 390.793 57.5182 392.106 53.712 393.136C51.6008 393.708 48.1666 394.224 46.4443 395.78C45.6723 396.477 44.9977 397.714 46.2348 398.506C47.223 399.139 48.6337 398.129 49.4334 397.583C48.7209 399.544 47.3769 400.522 48.1029 402.754C48.6759 404.517 49.9695 406.691 51.9599 405.553C52.2265 406.208 52.3344 407.511 53.1193 407.751C53.8246 407.968 54.3353 407.023 55.0262 407.246C55.2737 407.325 55.1797 407.819 55.4012 407.948C55.7829 408.17 56.1698 408.264 56.6071 408.421C56.9831 408.556 57.5882 408.832 57.9804 408.862C58.2293 408.88 58.8157 408.431 58.8138 408.431C59.3853 408.522 59.6927 409.678 60.1041 410.011C60.6382 410.445 61.0794 410.544 61.7482 410.701C63.1388 411.027 64.9311 411.586 65.8489 410.082C65.6388 411.156 67.0212 411.051 67.6311 411.187C67.5635 410.621 67.2677 410.103 66.8112 409.793C68.1749 409.888 67.622 411.32 68.6299 411.698C69.3482 411.967 69.2667 411.283 69.8162 411.207C70.5402 411.107 71.0897 411.663 72.2204 411.15C72.4654 412.301 72.555 413.461 73.8923 413.632C74.6773 413.733 76.5075 412.236 76.4039 413.482C78.1574 412.939 78.823 413.306 79.7393 414.939C79.8942 413.936 80.6436 414.227 81.3312 414.165C82.4211 414.067 82.4489 414.16 83.2938 413.508C83.3709 413.449 84.0355 411.84 84.3309 412.84C84.4637 413.287 83.5858 414.341 83.2607 414.609C83.6644 414.825 84.9873 415.58 85.4961 415.441C85.9362 415.321 85.9377 414.526 86.4666 414.485C86.3371 414.942 86.2081 415.4 86.0782 415.856C87.1072 416.014 87.9669 415.287 88.7796 414.754C89.5545 416.824 91.7693 415.658 92.9737 417.215C93.611 418.039 93.6407 418.666 94.8548 418.881C96.0971 419.101 97.1822 418.525 98.2381 419.608C97.9034 418.936 97.0696 418.379 97.8981 417.657C98.462 418.502 98.7531 419.521 99.4032 420.307C99.4929 419.907 99.5826 419.507 99.6722 419.107C101.367 421.022 103.501 421.039 105.672 422.101V420.699C107.227 423.205 107.31 421.62 109.167 420.596C109.041 421.333 108.914 422.07 108.788 422.806C110.124 422.7 111.373 424.372 112.47 422.952C113.133 424.126 113.936 423.548 115.022 423.921C115.639 424.133 116.099 424.775 116.7 425.008C117.601 425.356 117.87 425.34 118.718 425.643C119.472 425.913 119.901 426.437 120.845 426.606C121.458 426.715 122.015 426.707 122.602 426.677C122.828 426.665 122.754 426.126 123.258 426.252C124.037 426.447 124.617 427.479 125.178 428.009C126.022 425.768 128.385 428.769 129.527 429.169C129.636 428.595 129.617 427.902 130.01 427.43C130.472 428.5 130.649 429.399 131.608 430.088C132.162 430.485 132.975 430.77 133.615 430.916C134.019 431.007 134.754 430.897 135.008 431.029C135.441 431.253 135.601 431.853 136.039 431.909C136.296 431.942 136.678 431.226 136.871 431.282C137.753 431.536 138.243 432.668 139.134 433.28C141.785 435.102 145.121 435.279 148.075 435.679C148.816 435.779 148.924 435.565 149.526 436.024C149.847 436.27 149.702 437.016 150.097 437.226C151.585 438.014 151.586 436.332 151.899 435.287C152.391 435.974 152.476 436.88 153.15 437.426C153.517 437.415 153.886 437.423 154.253 437.452C154.46 437.702 154.596 437.99 154.659 438.317C155.551 438.953 156.562 438.731 157.483 439.209C157.785 439.366 158.32 440.312 158.692 440.584C159.358 441.072 160.388 441.332 161.149 441.544C162.745 441.987 165.033 441.398 165.982 443.158C167.243 441.731 166.755 443.435 167.611 443.793C168.116 444.004 168.876 443.164 169.437 443.248C170.446 443.397 170.81 444.552 171.133 445.391C171.748 445.246 171.326 443.409 171.308 443.006C172.072 442.911 172.242 445.036 172.374 445.503C173.58 444.89 171.6 442.981 172.897 442.368C172.778 443.995 174.005 445.334 171.814 445.567C172.116 446.546 179.184 447.634 179.675 446.77C179.784 448.368 180.8 446.875 181.175 446.328C181.218 447.261 180.917 448.584 181.908 449.018C182.581 449.312 184.099 448.551 184.363 447.854C184.665 448.918 185.17 448.884 185.798 449.56C186.23 450.025 186.514 450.83 186.967 451.219C187.8 451.935 189.349 451.825 190.319 451.665C192.218 451.352 191.994 450.968 192.67 453.053C192.823 452.261 193.303 450.607 194.139 451.837C194.671 452.618 193.538 454.341 193.211 455.027C193.942 454.603 194.669 454.1 195.501 453.917C195.548 454.188 195.59 454.763 195.468 455.013C195.493 454.963 196.381 455.592 196.71 455.766C196.631 455.724 196.97 454.158 196.961 454.209C198.132 454.973 197.319 456.433 198.357 457.186C198.625 457.381 199.254 457.154 199.578 457.272C200.143 457.479 200.631 458.038 201.132 458.364C200.732 457.797 200.789 456.845 200.817 456.19C201.072 456.339 201.254 456.896 201.512 456.94C201.609 456.957 202.618 457.098 202.612 457.093C203.662 457.87 203.446 457.968 202.544 458.902C202.866 459.437 204.213 458.508 204.577 458.353C204.654 458.562 204.673 459.322 204.817 459.458C204.904 459.683 204.991 459.908 205.078 460.133C205.347 459.921 205.636 459.85 205.944 459.92C206.138 459.992 207.658 460.645 207.761 460.421C207.429 460.308 207.127 460.134 206.857 459.899C207.734 459.066 208.311 458.624 209.119 459.826C209.221 459.978 208.871 460.522 208.975 460.719C209.361 461.455 210.154 462.04 210.692 462.639C210.915 461.812 210.397 459.741 211.635 459.816C212.624 459.876 213.376 462.407 213.034 463.194C213.427 462.74 215.775 462.289 216.218 462.431C217.471 462.832 217.119 464.055 218.661 462.262C219.712 463.029 218.785 463.319 218.975 464.253C219.252 464.314 219.515 464.242 219.764 464.036C219.578 468.005 222.351 464.972 224.151 465.579C224.858 465.817 225.039 466.664 225.797 466.912C226.199 467.042 226.645 466.733 227.035 466.808C227.348 466.761 227.659 466.703 227.968 466.634C228.359 466.426 228.542 466.658 228.519 467.329C229.148 467.673 228.91 467.808 229.645 467.875C230.119 467.918 230.555 467.397 231.093 467.486C232.022 467.64 231.899 468.393 232.493 468.787C233.027 469.141 233.629 469.13 234.287 469.061C234.622 469.026 235.564 468.57 235.677 468.568C236.38 468.558 235.999 468.4 236.842 469.038C237.499 469.535 237.775 469.858 238.582 470.086C239.507 470.348 241.147 470.921 241.77 470.215C242.61 471.546 243.269 470.569 244.378 470.657C244.946 470.703 245.036 470.936 245.541 471.03C246.36 471.181 247.382 471.05 248.253 471.345C249.626 471.811 249.781 472.045 251.184 472.108C251.437 472.004 251.69 471.899 251.943 471.794C252.019 472.241 252.218 472.605 252.541 472.887C253.326 473.061 253.841 472.642 254.488 472.184C254.971 473.771 256.536 473.91 257.874 474.118C260.035 474.455 262.1 474.639 264.183 475.389C265.942 476.022 267.705 476.733 269.397 477.544C270.886 478.258 272.292 479.325 273.977 478.824C277.794 477.689 281.494 473.549 284.688 471.172C288.471 468.357 292.551 466.037 296.504 463.506C312.241 453.429 328.867 444.905 344.383 434.454C352.854 428.748 360.715 421.969 369.812 417.352C368.517 423.005 366.312 428.744 366.711 434.663C366.871 437.048 367.536 439.866 369.287 441.53C371.452 443.589 373.863 442.279 375.934 440.808C380.37 437.657 383.329 433.059 386.649 428.741C390.577 423.633 393.623 418.146 396.507 412.325C397.198 413.349 396.673 415.066 396.683 416.202C396.696 417.652 397.066 419.048 397.703 420.343C399.345 423.683 402.472 424.492 405.296 422.204C410.733 417.8 413.888 409.957 416.801 403.64C418.462 406.905 420.82 411.015 424.81 408.683C428.102 406.759 430.037 402.459 431.044 398.817C433.984 388.187 433.052 377.358 433.504 366.461Z" fill="#2D2A2A"/>
<path fill-rule="evenodd" clip-rule="evenodd" d="M428.511 302.606C428.136 301.643 427.971 301.801 428.661 300.867C429.199 301.426 428.769 301.889 428.511 302.606ZM445.149 360.912C444.094 357.742 444.746 354.298 444.105 351.046C443.81 349.554 443.346 348.106 443.178 346.587C443.104 345.913 442.536 342.879 442.923 342.401C441.732 341.639 441.728 341.075 441.453 339.582C441.877 339.106 441.824 338.7 441.292 338.364C440.945 337.92 440.598 337.476 440.25 337.032C441.769 337.816 440.87 335.808 440.716 334.651C440.593 333.736 440.51 332.782 440.222 331.905C439.866 330.827 439.076 330.282 440.72 330.282C440.179 329.632 439.37 328.962 439.101 328.166C438.713 327.021 439.352 325.507 438.562 324.496C438.122 323.932 435.85 323.711 436.249 322.492C436.451 321.871 437.372 322.334 437.657 321.899C438.776 320.189 435.471 319.481 435.309 318.753C435.099 317.81 436.293 317.6 436.366 316.718C436.438 315.855 435.167 314.436 434.832 313.665C434.374 313.782 433.873 314.546 433.349 314.181C433.25 314.112 433.399 311.124 433.28 310.728C433.163 310.338 432.924 309.303 432.838 309.112C432.499 308.352 431.529 307.982 431.376 307.083C431.283 306.548 433.271 305.736 430.991 305.711C431.81 304.186 430.31 303.26 429.764 301.957C429.062 300.282 428.648 298.473 427.927 296.789C427.226 295.153 426.442 293.6 425.431 292.153C424.516 290.842 424.121 289.582 423.39 288.198C423.243 288.077 423.097 287.955 422.951 287.834C422.341 287.927 422.145 287.633 422.364 286.953C421.897 286.223 421.551 285.444 421.139 284.682C420.661 283.796 420.016 283.074 419.522 282.212C418.867 281.07 418.673 279.782 417.932 278.636C417.022 277.227 415.998 275.984 415.153 274.521C414.096 272.689 412.924 271.551 411.593 270.132C410.96 269.456 410.883 267.769 410.107 266.809C409.262 265.764 408.427 265.481 407.841 264.11C407.079 262.325 405.96 261.473 404.871 259.931C403.973 258.659 403.534 257.196 402.544 255.965C401.693 254.908 400.727 253.942 399.818 252.94C398.671 251.674 397.824 250.136 396.631 248.933C396.803 249.106 395.592 248.092 395.652 248.125C395.384 247.98 394.519 247.864 394.645 247.943C392.844 246.824 390.586 242.729 387.874 244.899C386.448 246.04 387.132 248.133 388.128 249.269C388.555 249.758 390.778 252.165 391.258 251.15C391.776 251.925 393.372 255.677 394.7 254.602C394.565 255.884 395.268 255.458 395.732 256.325C396.037 256.897 395.889 257.177 396.111 258.07C396.724 260.523 399.06 262.92 400.304 265.059C403.401 270.384 406.817 275.435 409.917 280.766C412.871 285.846 416.18 290.667 419.014 295.817C422.238 301.672 426.254 307.199 428.683 313.511C428.765 313.723 429.439 314.059 429.607 314.378C429.899 314.931 429.836 315.889 430.024 316.516C430.675 318.69 431.732 320.83 432.935 322.63C433.991 324.21 434.068 326.357 434.794 328.211C435.819 330.823 436.901 333.407 437.897 336.033C439.446 340.119 440.495 344.035 441.566 348.301C442.26 351.065 442.812 353.828 443.033 356.683C443.236 359.308 443.286 362.043 444.206 364.528C444.833 363.505 445.572 362.18 445.149 360.912Z" fill="#2D2A2A"/>
<path fill-rule="evenodd" clip-rule="evenodd" d="M90.7387 417.166C89.6253 416.929 88.5776 416.612 88.3417 415.261C88.1801 415.898 88.019 416.535 87.8574 417.171C89.2129 417.495 90.5689 417.82 91.9245 418.144C91.608 417.555 91.3769 417.302 90.7387 417.166Z" fill="#2D2A2A"/>
<path fill-rule="evenodd" clip-rule="evenodd" d="M93.7261 195.547C93.8105 195.166 93.9198 194.793 94.0546 194.429C94.1462 194.784 94.595 195.552 94.3336 195.886C94.0009 196.311 93.6643 196.071 93.7261 195.547ZM99.1842 184.577C99.5496 184.747 100.34 184.78 100.794 184.924C99.6172 185.993 99.41 185.679 97.8886 185.555C97.821 184.473 98.2372 184.137 99.1842 184.577ZM88.9849 211.36C89.1427 211.365 89.3009 211.369 89.4596 211.373C89.4692 210.902 89.4577 210.431 89.4241 209.961C91.0285 210.332 90.1203 207.37 89.6164 206.756C91.1815 206.811 91.9439 201.577 92.4397 200.569C92.8798 199.673 93.3785 199.327 93.7002 198.235C93.9817 197.279 94.2862 196.419 94.6923 195.515C95.6254 193.436 96.8495 191.548 96.6237 189.125C97.4144 190.943 98.1096 189.129 98.6112 188.259C99.4191 186.859 101.39 185.072 101.6 183.409C101.785 181.944 100.755 181.867 101.363 180.509C101.978 179.134 102.483 179.272 103.56 178.832C104.276 178.539 104.419 178.895 104.924 177.94C105.252 177.321 105.136 176.86 105.556 176.353C105.729 176.512 105.926 176.578 106.146 176.551C106.487 176.076 106.71 175.547 106.816 174.964C107.094 174.177 107.228 173.455 107.646 172.705C108.043 171.995 108.747 170.095 109.12 169.752C109.516 169.389 111.762 169.574 111.753 169.587C112.68 168.354 110.978 167.126 113.335 167.386C112.87 166.47 114.505 165.333 114.98 164.824C116.166 163.552 116.26 162.963 116.511 161.364C116.638 160.548 115.808 160.642 116.92 160.456C117.38 160.38 117.821 161.001 118.153 160.91C119.618 160.509 118.085 160.585 118.49 159.955C118.617 159.754 119.269 158.947 119.262 158.956C119.231 158.996 119.409 158.253 119.557 158.062C119.837 158.037 120.113 157.985 120.383 157.907C120.521 157.613 120.643 157.313 120.748 157.005C121.809 156.071 123.395 155.653 124.128 154.627C124.602 153.963 124.46 153.313 125.073 152.652C125.656 152.022 126.428 152.478 126.544 151.055C126.691 149.244 124.85 148.438 124.097 150.266C122.054 147.608 113.516 157.359 112.53 158.633C108.246 164.163 104.035 169.829 100.521 175.945C97.0965 181.903 94.2862 188.173 92.0896 194.745C91.0304 197.913 90.3855 201.068 89.7387 204.346C89.5215 205.443 87.8984 210.335 88.574 211.429C88.7106 211.406 88.8478 211.383 88.9849 211.36Z" fill="#2D2A2A"/>
<path fill-rule="evenodd" clip-rule="evenodd" d="M426.214 346.973C426.936 346.465 426.936 346.465 427.062 345.504C426.095 345.69 426.095 345.69 426.214 346.973Z" fill="#2D2A2A"/>
<path fill-rule="evenodd" clip-rule="evenodd" d="M70.5096 411.617C70.5189 411.616 70.5257 411.618 70.5311 411.624C70.5155 411.603 70.4588 411.542 70.5096 411.617Z" fill="#2D2A2A"/>
<path fill-rule="evenodd" clip-rule="evenodd" d="M70.025 412.132C70.248 412.641 70.6061 412.768 71.1 412.511C71.2947 412.805 69.4112 410.678 70.025 412.132Z" fill="#2D2A2A"/>
<path fill-rule="evenodd" clip-rule="evenodd" d="M102.595 179.798C101.465 182.139 102.88 180.437 102.808 181.197C102.855 180.697 103.051 179.986 102.595 179.798Z" fill="#2D2A2A"/>
<path fill-rule="evenodd" clip-rule="evenodd" d="M286.332 216.025C286.822 220.222 292.257 218.237 293.48 215.698C294.37 213.85 296.619 206.546 294.2 205.003C292.406 203.86 292.023 208.789 291.581 209.89C290.84 211.734 290.262 210.428 288.615 210.901C286.797 211.423 286.13 214.284 286.332 216.025Z" fill="#2D2A2A"/>
<path fill-rule="evenodd" clip-rule="evenodd" d="M280.393 208.343C282.336 208.799 284.241 208.564 285.621 206.943C286.385 206.045 287.402 204.265 286.026 203.396C284.779 202.61 283.365 204.452 282.051 204.071C280.265 203.553 281.185 201.53 280.572 200.193C278.32 201.563 277.064 207.562 280.393 208.343Z" fill="#2D2A2A"/>
<path fill-rule="evenodd" clip-rule="evenodd" d="M282.408 218.94C280.535 218.936 280.52 221.369 281.497 222.412C282.433 223.41 284.799 224.42 286.067 223.644C288.569 222.112 283.923 219.098 282.408 218.94Z" fill="#2D2A2A"/>
<path fill-rule="evenodd" clip-rule="evenodd" d="M173.434 315.702C173.834 315.908 175.013 316.963 175.51 316.487C174.808 315.74 174.107 314.994 173.406 314.248C173.019 314.697 172.753 315.353 173.434 315.702Z" fill="#2D2A2A"/>
<path fill-rule="evenodd" clip-rule="evenodd" d="M164.583 208.95C164.384 209.107 164.185 209.263 163.986 209.42C164.658 210.011 164.641 210.187 165.318 209.627C165.117 209.347 164.872 209.122 164.583 208.95Z" fill="#2D2A2A"/>
<path fill-rule="evenodd" clip-rule="evenodd" d="M291.519 348.197C291.143 347.483 290.432 348.8 289.951 349.014C289.168 349.362 288.526 347.518 288.75 349.728C286.982 348.873 285.908 350.836 284.767 351.858C283.156 353.302 281.185 354.086 280.109 356.137C285.17 357.388 290.729 352.78 294.502 349.753C295.118 349.258 298.195 346.765 296.11 346.524C295.257 346.425 292.152 349.398 291.519 348.197Z" fill="#2D2A2A"/>
<path fill-rule="evenodd" clip-rule="evenodd" d="M290.018 343.87C291.01 343.046 288.872 342.97 288.534 342.884C288.563 343.54 288.591 344.195 288.621 344.851C289.099 344.545 289.565 344.217 290.018 343.87Z" fill="#2D2A2A"/>
<path fill-rule="evenodd" clip-rule="evenodd" d="M286.295 346.621C286.591 346.425 287.417 345.815 286.855 345.36C286.347 345.702 285.985 346.259 285.905 346.894C286.035 346.803 286.165 346.712 286.295 346.621Z" fill="#2D2A2A"/>
<path fill-rule="evenodd" clip-rule="evenodd" d="M204.344 293.433C203.71 293.695 203.426 294.11 203.493 294.679C204.466 294.468 204.281 293.497 204.344 293.433Z" fill="#2D2A2A"/>
<path fill-rule="evenodd" clip-rule="evenodd" d="M378.854 38.5097C390.953 41.6912 403.847 42.3442 416.185 44.7361C419.273 45.3348 428.397 45.6869 429.205 48.4135C429.678 50.0077 427.885 52.7904 427.175 54.2363C425.958 56.7131 424.856 59.174 423.815 61.7129C419.057 73.3382 414.777 84.9009 409.219 96.2831C408.382 97.9956 406.612 105.441 404.372 102.768C403.357 101.555 403.301 99.837 401.422 99.0133C400.455 98.5887 397.447 99.1678 397.816 97.4546C398.452 97.5001 399.088 97.5461 399.725 97.5908C398.912 96.5857 398.53 95.3171 397.521 94.4461C396.893 93.905 395.996 93.8463 395.471 93.1772C394.746 92.2527 394.99 90.8216 394.527 89.7753C394.066 88.7318 393.118 87.9137 392.418 87.0164C388.265 81.6975 385.488 75.8723 382.332 70.0138C379.209 64.2167 375.536 58.8139 372.818 52.8079C369.947 46.4642 366.92 40.1865 363.615 34.0436C365.776 33.6276 368.044 35.1576 369.893 35.8367C372.797 36.904 375.838 37.7166 378.854 38.5097ZM391.95 104.755C391.362 104.571 390.852 104.274 390.42 103.867C394.585 100.052 392.872 104.788 391.95 104.755ZM387.429 101.023C385.474 102.259 383.978 102.871 382.072 102.611C381.891 102.587 381.879 101.943 381.558 101.916C381.278 101.893 380.945 102.145 380.703 102.116C379.878 102.019 378.864 103.158 378.325 101.928C380.796 100.275 383.011 97.9964 385.806 96.8168C389.69 95.1782 390.722 98.942 387.429 101.023ZM375.685 96.7699C372.98 98.3451 371.06 100.58 367.846 101.217C364.828 101.816 361.857 101.273 359.05 100.445C364.289 97.0875 370.205 94.8491 375.455 91.5416C377.164 90.4648 379.208 88.4346 381.377 88.2696C383.787 88.0865 384.553 89.9436 385.79 91.4561C382.414 93.2132 378.971 94.8569 375.685 96.7699ZM355.08 95.3962C352.486 96.9226 350.067 99.1912 346.976 97.6627C346.477 97.4161 346.269 97.8944 345.939 96.7384C345.59 95.5196 346.534 94.3505 347.426 93.588C349.522 91.7957 353.132 91.3235 355.658 90.3313C359.688 88.7495 363.612 86.5986 367.477 84.6654C370.153 83.3273 372.756 81.4531 375.69 80.6903C377.955 80.1015 381.199 80.9457 378.378 83.2656C375.809 85.3789 371.335 86.6539 368.307 88.1983C363.831 90.4812 359.402 92.8532 355.08 95.3962ZM348.415 84.3123C348.651 84.421 348.888 84.5296 349.124 84.6383C349.092 84.6418 349.926 83.4673 350.21 83.348C351.59 82.7703 353.044 82.3911 354.439 81.8521C357.653 80.6101 360.777 79.0088 363.8 77.3825C366.262 76.0576 368.662 74.3799 371.42 73.6967C373.808 73.105 374.196 73.4597 375.022 75.4595C369.073 77.4138 362.907 79.3126 357.438 82.381C353.876 84.3781 350.412 87.9805 347.188 84.5972C347.598 84.5022 348.006 84.4073 348.415 84.3123ZM349.284 74.4121C351.095 74.9515 354.557 71.9276 356.27 71.1767C358.129 70.3608 359.872 69.5751 361.59 68.528C363.112 67.599 367.936 63.8735 369.808 65.3058C372.679 67.5 364.994 70.6002 363.794 71.1495C358.764 73.4534 353.516 75.7552 348.844 78.6733C348.991 77.2531 349.137 75.8329 349.284 74.4121ZM353.289 62.4412C354.1 63.6247 364.328 54.9215 365.694 58.3561C366.744 60.991 355.332 66.2244 353.123 66.6884C353.215 65.286 354.179 63.7409 353.289 62.4412ZM354.552 52.9117C353.936 50.1893 354.33 50.0769 356.571 49.0651C358.28 48.2934 360.405 46.5469 360.889 49.5761C361.304 52.1699 355.175 55.6587 354.552 52.9117ZM355.79 42.4416C355.884 40.8407 357.768 42.3352 358.032 43.0472C358.732 44.942 357 45.0512 355.465 45.5557C355.598 44.5195 355.707 43.4799 355.79 42.4416ZM371.736 25.4165C371.31 25.1756 369.508 25.6219 368.953 25.6195C367.587 25.6127 367.474 24.6791 366.184 26.0605C366.081 26.014 366.017 25.3152 365.922 25.3135C365.874 25.3124 364.646 25.2955 364.218 25.2039C363.187 24.9831 362.245 24.745 361.242 24.3724C360.176 23.9769 359.008 23.2779 357.867 23.059C357.385 22.9669 356.947 22.7559 356.434 22.8479C355.102 23.0873 355.732 23.7757 354.672 24.3019C354.019 24.6261 353.28 24.0605 352.487 24.6697C351.801 25.1957 351.677 26.3338 351.525 27.0366C350.975 29.5939 350.765 32.2207 350.248 34.7922C347.607 47.9417 343.968 60.9525 341.558 74.1406C340.397 80.4937 339.121 86.9261 338.94 93.3322C338.809 97.9523 337.432 105.091 341.679 108.27C344.766 110.581 349.4 110.495 353.234 110.842C359.003 111.365 364.597 112.688 370.399 113.126C377.319 113.648 384.1 114.345 390.962 115.212C393.889 115.582 396.742 116.562 399.639 116.871C401.411 117.06 403.405 115.089 404.431 116.52C405.664 113.749 409.263 114.144 411.007 111.905C412.033 110.588 412.423 108.53 413.163 107.08C414.273 104.906 415.563 102.804 416.717 100.647C421.293 92.0836 425.271 83.4231 429.091 74.5848C432.739 66.1443 437.482 57.7444 440.027 48.981C441.038 45.5019 440.412 42.4075 438.098 39.6911C436.409 37.7099 433.017 34.9949 430.291 37.5695C430.906 35.318 425.541 34.8914 423.992 34.9997C423.969 35.0018 424.154 36.5155 423.743 36.611C423.889 36.577 421.51 33.8561 420.788 33.6442C418.643 33.0126 416.053 32.3042 413.819 31.9382C411.77 31.6027 409.775 31.7583 407.745 31.2962C405.285 30.7367 402.917 29.8921 400.452 29.3433C398.071 28.8137 395.392 28.1434 392.923 28.0525C390.782 27.9735 389.023 28.3982 386.925 27.8051C384.331 27.0711 382.158 26.7086 379.384 26.527C376.984 26.37 373.801 26.5896 371.736 25.4165Z" fill="#2D2A2A"/>
<path fill-rule="evenodd" clip-rule="evenodd" d="M100.975 53.5614C98.2517 52.5654 94.8827 50.6204 91.8557 51.2834C88.6387 51.9874 87.3437 55.2094 85.0047 57.1464C78.6457 62.4134 74.9417 54.5634 71.4477 50.2614C68.1477 46.1994 64.1217 45.2134 59.4657 47.7094C57.6107 48.7044 49.7957 53.2634 51.1587 56.1844C52.1387 58.2864 55.9997 56.3994 57.3167 55.9404C60.1757 54.9454 62.8307 54.0744 65.7547 55.5254C71.2397 58.2454 72.6627 65.7044 79.2987 66.8674C86.1607 68.0704 86.3857 61.5403 91.2827 59.0823C94.5657 57.4353 96.8527 60.3514 100.02 59.7704C103.038 59.2174 104.434 54.8254 100.975 53.5614Z" fill="#2D2A2A"/>
<path fill-rule="evenodd" clip-rule="evenodd" d="M161.975 105.561C159.252 104.565 155.883 102.62 152.856 103.283C149.639 103.987 148.344 107.209 146.005 109.146C139.646 114.413 135.942 106.563 132.448 102.261C129.148 98.1994 125.122 97.2134 120.466 99.7094C118.611 100.704 110.796 105.263 112.159 108.184C113.139 110.286 117 108.399 118.317 107.94C121.176 106.945 123.831 106.074 126.755 107.525C132.24 110.245 133.663 117.704 140.299 118.867C147.161 120.07 147.386 113.54 152.283 111.082C155.566 109.435 157.853 112.351 161.02 111.77C164.038 111.217 165.434 106.825 161.975 105.561Z" fill="#2D2A2A"/>
</svg>
